<?xml version="1.0" encoding="UTF-8" standalone="no"?>
<svg
   version="1.1"
   id="Layer_1"
   x="0px"
   y="0px"
   viewBox="0 0 122.88 122.76"
   style="enable-background:new 0 0 122.88 122.76"
   xml:space="preserve"
   sodipodi:docname="four-corners-arrows-line-icon.svg"
   inkscape:version="1.2.1 (9c6d41e410, 2022-07-14)"
   xmlns:inkscape="http://www.inkscape.org/namespaces/inkscape"
   xmlns:sodipodi="http://sodipodi.sourceforge.net/DTD/sodipodi-0.dtd"
   xmlns="http://www.w3.org/2000/svg"
   xmlns:svg="http://www.w3.org/2000/svg"><defs
     id="defs314" /><sodipodi:namedview
     id="namedview312"
     pagecolor="#ffffff"
     bordercolor="#000000"
     borderopacity="0.25"
     inkscape:showpageshadow="2"
     inkscape:pageopacity="0.0"
     inkscape:pagecheckerboard="0"
     inkscape:deskcolor="#d1d1d1"
     showgrid="false"
     inkscape:zoom="1.0895243"
     inkscape:cx="-15.144225"
     inkscape:cy="-13.767477"
     inkscape:window-width="1366"
     inkscape:window-height="715"
     inkscape:window-x="-8"
     inkscape:window-y="-8"
     inkscape:window-maximized="1"
     inkscape:current-layer="Layer_1" /><g
     id="g309"
     transform="translate(-175.30587,-3.6713272)"
     style="stroke:#ff6600;stroke-width:2.99999943;stroke-dasharray:none;fill:#ff6600"
     inkscape:export-filename="full extent icon.png"
     inkscape:export-xdpi="96"
     inkscape:export-ydpi="96"><path
       d="m 114.89,89.82 c 0,-2.21 1.79,-4 4,-4 2.21,0 4,1.79 4,4 v 28.75 c 0,2.21 -1.79,4 -4,4 H 89.67 c -2.21,0 -4,-1.79 -4,-4 0,-2.21 1.79,-4 4,-4 h 19.18 L 74.49,82.09 c -1.6,-1.51 -1.68,-4.03 -0.17,-5.64 1.51,-1.6 4.03,-1.68 5.64,-0.17 l 34.93,33.02 V 89.82 Z M 89.82,7.99 c -2.21,0 -4,-1.79 -4,-4 0,-2.21 1.79,-4 4,-4 h 28.75 c 2.21,0 4,1.79 4,4 V 33.2 c 0,2.21 -1.79,4 -4,4 -2.21,0 -4,-1.79 -4,-4 V 14.03 L 82.09,48.39 c -1.51,1.6 -4.03,1.68 -5.64,0.17 -1.6,-1.51 -1.68,-4.03 -0.17,-5.64 L 109.3,7.99 H 89.82 Z M 7.99,32.76 c 0,2.21 -1.79,4 -4,4 -2.21,0 -4,-1.79 -4,-4 V 4.01 c 0,-2.21 1.79,-4 4,-4 H 33.2 c 2.21,0 4,1.79 4,4 0,2.21 -1.79,4 -4,4 H 14.03 l 34.36,32.48 c 1.6,1.51 1.68,4.03 0.17,5.64 -1.51,1.6 -4.03,1.68 -5.64,0.17 L 7.99,13.28 v 19.48 z m 24.95,82.01 c 2.21,0 4,1.79 4,4 0,2.21 -1.79,4 -4,4 H 4.19 c -2.21,0 -4,-1.79 -4,-4 V 89.55 c 0,-2.21 1.79,-4 4,-4 2.21,0 4,1.79 4,4 v 19.18 L 40.67,74.37 c 1.51,-1.6 4.03,-1.68 5.64,-0.17 1.6,1.51 1.68,4.03 0.17,5.64 l -33.02,34.93 h 19.48 z"
       id="path307"
       style="stroke:#ff6600;stroke-width:2.99999943;stroke-dasharray:none;fill:#ff6600" /></g></svg>
