<?xml version="1.0" encoding="UTF-8" standalone="no"?>
<svg
   shape-rendering="geometricPrecision"
   text-rendering="geometricPrecision"
   image-rendering="optimizeQuality"
   fill-rule="evenodd"
   clip-rule="evenodd"
   viewBox="0 0 512 512"
   version="1.1"
   id="svg4"
   sodipodi:docname="question-mark-circle-outline-icon.svg"
   inkscape:version="1.2.1 (9c6d41e410, 2022-07-14)"
   xmlns:inkscape="http://www.inkscape.org/namespaces/inkscape"
   xmlns:sodipodi="http://sodipodi.sourceforge.net/DTD/sodipodi-0.dtd"
   xmlns="http://www.w3.org/2000/svg"
   xmlns:svg="http://www.w3.org/2000/svg">
  <defs
     id="defs8" />
  <sodipodi:namedview
     id="namedview6"
     pagecolor="#ffffff"
     bordercolor="#000000"
     borderopacity="0.25"
     inkscape:showpageshadow="2"
     inkscape:pageopacity="0.0"
     inkscape:pagecheckerboard="0"
     inkscape:deskcolor="#d1d1d1"
     showgrid="false"
     inkscape:zoom="0.36943567"
     inkscape:cx="-561.66747"
     inkscape:cy="105.56642"
     inkscape:window-width="1366"
     inkscape:window-height="715"
     inkscape:window-x="-8"
     inkscape:window-y="-8"
     inkscape:window-maximized="1"
     inkscape:current-layer="svg4" />
  <path
     fill-rule="nonzero"
     d="m -618.70654,-3.8280372 c 70.69,0 134.7,28.6600002 181.02,74.9799962 46.32,46.330001 74.98,110.330001 74.98,181.020001 0,70.69 -28.66,134.7 -74.98,181.02 -46.32,46.32 -110.33,74.98 -181.02,74.98 -70.69,0 -134.69,-28.66 -181.02,-74.98 -46.32,-46.32 -74.98,-110.33 -74.98,-181.02 0,-70.69 28.66,-134.69 74.98,-181.020001 46.33,-46.319996 110.33,-74.9799962 181.02,-74.9799962 z m -21.49,301.5099972 v -2.03 c 0.16,-13.46 1.48,-24.12 4.07,-32.05 2.54,-7.92 6.19,-14.37 10.97,-19.25 4.77,-4.92 10.51,-9.39 17.22,-13.46 4.31,-2.74 8.22,-5.78 11.68,-9.18 3.45,-3.36 6.19,-7.27 8.23,-11.69 2.02,-4.37 3.04,-9.24 3.04,-14.62 0,-6.4 -1.52,-11.94 -4.57,-16.66 -3,-4.68 -7.06,-8.28 -12.04,-10.87 -5.03,-2.54 -10.61,-3.81 -16.76,-3.81 -5.53,0 -10.81,1.11 -15.89,3.45 -5.03,2.29 -9.25,5.89 -12.55,10.77 -3.3,4.87 -5.23,11.12 -5.74,18.74 h -32.91 c 0.51,-12.95 3.81,-23.92 9.85,-32.91 6.1,-8.99 14.13,-15.8 24.08,-20.42 10.01,-4.62 21.08,-6.9 33.16,-6.9 13.31,0 24.89,2.43 34.84,7.41 9.96,4.93 17.73,11.83 23.27,20.67 5.48,8.84 8.28,19.1 8.28,30.88 0,8.08 -1.27,15.34 -3.81,21.79 -2.54,6.45 -6.1,12.24 -10.77,17.27 -4.68,5.08 -10.21,9.54 -16.71,13.41 -6.15,3.86 -11.12,7.82 -14.88,11.93 -3.81,4.11 -6.56,8.99 -8.28,14.58 -1.73,5.63 -2.69,12.59 -2.84,20.92 v 2.03 z m 183.2,-207.220001 c -41.38,-41.369996 -98.56,-66.969996 -161.71,-66.969996 -63.15,0 -120.32,25.6 -161.71,66.969996 -41.37,41.390001 -66.97,98.560001 -66.97,161.710001 0,63.15 25.6,120.33 66.97,161.71 41.39,41.37 98.56,66.97 161.71,66.97 63.15,0 120.33,-25.6 161.71,-66.97 41.37,-41.38 66.97,-98.56 66.97,-161.71 0,-63.15 -25.6,-120.32 -66.97,-161.710001 z"
     id="path2"
     style="fill:#0000ff;stroke:#0000ff;stroke-width:20;stroke-dasharray:none"
     inkscape:export-filename="questionmark.png"
     inkscape:export-xdpi="96"
     inkscape:export-ydpi="96"
     sodipodi:nodetypes="scssscscscccccccsccsccccccsccssccccccccscscscsc" />
  <circle
     style="fill:#0000ff;stroke:#0000ff;stroke-width:18.5517;stroke-dasharray:none"
     id="path1009"
     cx="-619.66357"
     cy="376.64709"
     r="28.998535" />
</svg>
