<?xml version="1.0" encoding="UTF-8" standalone="no"?>
<svg
   version="1.1"
   id="Layer_1"
   x="0px"
   y="0px"
   viewBox="0 0 111.26 122.88"
   style="enable-background:new 0 0 111.26 122.88"
   xml:space="preserve"
   sodipodi:docname="text-documents-line-icon.svg"
   inkscape:version="1.2.1 (9c6d41e410, 2022-07-14)"
   xmlns:inkscape="http://www.inkscape.org/namespaces/inkscape"
   xmlns:sodipodi="http://sodipodi.sourceforge.net/DTD/sodipodi-0.dtd"
   xmlns="http://www.w3.org/2000/svg"
   xmlns:svg="http://www.w3.org/2000/svg"><defs
     id="defs9" /><sodipodi:namedview
     id="namedview7"
     pagecolor="#ffffff"
     bordercolor="#000000"
     borderopacity="0.25"
     inkscape:showpageshadow="2"
     inkscape:pageopacity="0.0"
     inkscape:pagecheckerboard="0"
     inkscape:deskcolor="#d1d1d1"
     showgrid="false"
     inkscape:zoom="1.0884603"
     inkscape:cx="-35.371065"
     inkscape:cy="76.254503"
     inkscape:window-width="1366"
     inkscape:window-height="715"
     inkscape:window-x="-8"
     inkscape:window-y="-8"
     inkscape:window-maximized="1"
     inkscape:current-layer="Layer_1" /><g
     id="g4"
     transform="matrix(0.62616823,0,0,0.62616823,12.5277,33.074243)"
     style="fill:#008000;stroke:#008000;stroke-width:1.47883581;stroke-dasharray:none"
     inkscape:export-filename="copy icon.png"
     inkscape:export-xdpi="96"
     inkscape:export-ydpi="96"><path
       d="m 21.78,62.8 c -1.61,0 -2.91,-1.43 -2.91,-3.19 0,-1.76 1.3,-3.19 2.91,-3.19 h 24.91 c 1.61,0 2.91,1.43 2.91,3.19 0,1.76 -1.3,3.19 -2.91,3.19 z M 93.37,19.34 h 10.43 c 2.05,0 3.92,0.84 5.27,2.19 1.35,1.35 2.19,3.22 2.19,5.27 v 88.62 c 0,2.06 -0.84,3.92 -2.19,5.27 -1.35,1.35 -3.22,2.19 -5.27,2.19 H 25.35 c -2.05,0 -3.92,-0.84 -5.27,-2.19 -1.35,-1.35 -2.19,-3.21 -2.19,-5.27 V 103.54 H 7.46 c -2.05,0 -3.92,-0.84 -5.27,-2.19 C 0.84,100 0,98.13 0,96.08 V 7.46 C 0,5.4 0.84,3.54 2.19,2.19 3.54,0.84 5.4,0 7.46,0 h 78.45 c 2.05,0 3.92,0.84 5.27,2.19 1.35,1.35 2.19,3.22 2.19,5.27 z m -69.09,84.2 v 11.88 c 0,0.29 0.12,0.56 0.32,0.75 0.2,0.2 0.46,0.32 0.75,0.32 h 78.45 c 0.29,0 0.56,-0.12 0.75,-0.32 0.2,-0.2 0.32,-0.46 0.32,-0.75 V 26.8 c 0,-0.29 -0.12,-0.56 -0.32,-0.75 -0.2,-0.2 -0.46,-0.32 -0.75,-0.32 H 93.37 v 70.34 c 0,2.05 -0.84,3.92 -2.19,5.27 -1.35,1.35 -3.22,2.19 -5.27,2.19 H 24.28 Z M 85.91,6.39 H 7.46 C 7.17,6.39 6.9,6.51 6.71,6.71 6.51,6.91 6.39,7.17 6.39,7.46 v 88.62 c 0,0.29 0.12,0.56 0.32,0.75 0.2,0.2 0.46,0.32 0.75,0.32 h 78.45 c 0.29,0 0.56,-0.12 0.75,-0.32 0.2,-0.2 0.32,-0.46 0.32,-0.75 V 7.46 C 86.98,7.17 86.86,6.9 86.66,6.71 86.47,6.51 86.2,6.39 85.91,6.39 Z M 21.78,28.64 c -1.61,0 -2.91,-1.43 -2.91,-3.19 0,-1.76 1.3,-3.19 2.91,-3.19 h 49.81 c 1.61,0 2.91,1.43 2.91,3.19 0,1.76 -1.3,3.19 -2.91,3.19 z m 0,17.08 c -1.61,0 -2.91,-1.43 -2.91,-3.19 0,-1.76 1.3,-3.19 2.91,-3.19 h 49.81 c 1.61,0 2.91,1.43 2.91,3.19 0,1.76 -1.3,3.19 -2.91,3.19 z"
       id="path2"
       style="fill:#008000;stroke:#008000;stroke-width:1.47883581;stroke-dasharray:none" /></g></svg>
