<?xml version="1.0" encoding="UTF-8" standalone="no"?>
<svg
   version="1.1"
   id="Layer_1"
   x="0px"
   y="0px"
   viewBox="0 0 119.25 122.88"
   style="enable-background:new 0 0 119.25 122.88"
   xml:space="preserve"
   sodipodi:docname="artificial-intelligence-ai-icon.svg"
   inkscape:version="1.2.2 (732a01da63, 2022-12-09)"
   xmlns:inkscape="http://www.inkscape.org/namespaces/inkscape"
   xmlns:sodipodi="http://sodipodi.sourceforge.net/DTD/sodipodi-0.dtd"
   xmlns="http://www.w3.org/2000/svg"
   xmlns:svg="http://www.w3.org/2000/svg"><defs
     id="defs9" /><sodipodi:namedview
     id="namedview7"
     pagecolor="#505050"
     bordercolor="#eeeeee"
     borderopacity="1"
     inkscape:showpageshadow="0"
     inkscape:pageopacity="0"
     inkscape:pagecheckerboard="0"
     inkscape:deskcolor="#505050"
     showgrid="false"
     inkscape:zoom="1.723226"
     inkscape:cx="-418.98162"
     inkscape:cy="-144.49643"
     inkscape:window-width="1920"
     inkscape:window-height="1027"
     inkscape:window-x="-8"
     inkscape:window-y="-8"
     inkscape:window-maximized="1"
     inkscape:current-layer="Layer_1" /><path
     d="m -72.500816,42.665001 c -0.47,-0.19 -0.98,-0.3 -1.52,-0.3 -0.54,0 -1.05,0.11 -1.52,0.3 -0.47,0.2 -0.9,0.48 -1.25,0.84 l -0.03,0.02 c -0.2,0.2 -0.39,0.43 -0.54,0.68 -0.08,0.13 -0.16,0.27 -0.23,0.42 h -6.31 v -5.48 c -0.97,0.45 -1.98,0.79 -3.01,1 -0.18,0.04 -0.35,0.07 -0.53,0.1 v 6.14 c 0,0.49 0.2,0.93 0.52,1.25 0.32,0.32 0.76,0.52 1.25,0.52 h 8.14 c 0.06,0.12 0.13,0.24 0.21,0.36 0.14,0.21 0.3,0.41 0.48,0.59 l 0.03,0.03 c 0.36,0.36 0.8,0.66 1.29,0.86 0.47,0.19 0.98,0.3 1.52,0.3 0.52,0 1.03,-0.1 1.49,-0.29 l 0.03,-0.01 c 0.49,-0.2 0.92,-0.5 1.29,-0.86 0.36,-0.36 0.66,-0.8 0.86,-1.29 0.19,-0.47 0.3,-0.98 0.3,-1.52 0,-0.53 -0.11,-1.04 -0.3,-1.52 -0.2,-0.49 -0.5,-0.93 -0.86,-1.29 -0.38,-0.35 -0.82,-0.65 -1.31,-0.85 z m -24.11,-76.800001 c -1.08,0.78 -2.08,1.83 -2.95,3.19 -0.04,0.07 -0.1,0.13 -0.17,0.17 -0.270004,0.17 -0.630004,0.09 -0.800004,-0.17 -0.87,-1.36 -1.87,-2.41 -2.95,-3.19 -1.16,-0.84 -2.41,-1.37 -3.7,-1.63 h -0.02 c -1.26,-0.26 -2.55,-0.26 -3.79,-0.04 -1.31,0.23 -2.58,0.71 -3.72,1.37 -1.13,0.66 -2.15,1.51 -3,2.49 -0.82,0.95 -1.48,2.04 -1.91,3.21 v 0 c -0.07,0.18 -0.13,0.37 -0.19,0.57 -0.05,0.18 -0.11,0.38 -0.15,0.58 -0.05,0.26 -0.27,0.45 -0.55,0.46 -1.34,0.2 -2.67,0.69 -3.91,1.42 -1.26,0.75 -2.43,1.77 -3.44,2.99 -1,1.22 -1.84,2.66 -2.44,4.26 -0.56,1.5 -0.9,3.15 -0.97,4.9 -0.01,0.23 -0.01,0.45 -0.01,0.68 0,0.21 0.01,0.43 0.01,0.66 0.01,0.19 -0.07,0.39 -0.24,0.51 -0.82,0.59 -1.56,1.2 -2.22,1.8299997 -0.67,0.65 -1.26,1.32 -1.77,2.01 -0.83,1.13 -1.44,2.31 -1.85,3.5 -0.43,1.24 -0.64,2.51 -0.66,3.75999999 -0.01,1.2 0.15,2.39000001 0.49,3.54000001 0.34,1.17 0.86,2.31 1.53,3.37 v 0 c 0.38,0.61 0.81,1.21 1.28,1.77 0.48,0.57 1,1.11 1.56,1.62 0.14,0.13 0.22,0.3400003 0.18,0.5400003 -0.16,0.76 -0.24,1.51 -0.27,2.25 -0.02,0.76 0.02,1.51 0.12,2.24 0.19,1.34 0.58,2.62 1.13,3.8 0.58,1.26 1.34,2.41 2.22,3.42 0.85,0.99 1.82,1.85 2.86,2.56 1.05,0.72 2.16,1.28 3.3,1.67 0.51,0.17 1.03,0.31 1.56,0.41 0.5,0.1 1,0.16 1.49,0.18 0.27,-0.01 0.52,0.18 0.58,0.46 0.26,1.19 0.74,2.31 1.4,3.32 0.69,1.06 1.56,2 2.56,2.78 1.26,0.98 2.74,1.72 4.3,2.11 1.47,0.37 3.02,0.44 4.54,0.12 1.36,-0.28 2.68,-0.86 3.9,-1.78 1.12,-0.85 2.16,-1.99 3.03,-3.47 0.05,-0.09 0.13,-0.16 0.23,-0.21 0.280004,-0.15 0.630004,-0.04 0.780004,0.24 0.72,1.34 1.6,2.41 2.58,3.22 1.06,0.87 2.23,1.46 3.46,1.8 1.57,0.43 3.21,0.43 4.8,0.1 1.7,-0.35 3.34,-1.09 4.75,-2.11 1.11,-0.79 2.09,-1.76 2.87,-2.86 0.74,-1.03 1.29,-2.18 1.61,-3.39 0.04,-0.23 0.22,-0.43 0.47,-0.47 1.47,-0.26 2.92,-0.87 4.25,-1.78 1.33,-0.91 2.54,-2.11 3.53,-3.54 0.91,-1.32 1.64,-2.84 2.11,-4.5 0.44,-1.55 0.65,-3.23 0.58,-5 -0.02,-0.2 0.07,-0.4 0.25,-0.52 0.86,-0.59 1.62,-1.21 2.3,-1.8400003 0.69,-0.66 1.3,-1.34 1.82,-2.05 v 0 c 0.8,-1.08 1.39,-2.2 1.8,-3.35 0.42,-1.19 0.64,-2.4 0.68,-3.61000001 0.03,-1.17000001 -0.11,-2.32999999 -0.41,-3.46999999 -0.3,-1.15 -0.77,-2.26 -1.38,-3.31 l -0.02,-0.02 c -0.4,-0.69 -0.87,-1.35 -1.39,-1.99 -0.52,-0.64 -1.11,-1.24 -1.74,-1.8099997 -0.15,-0.13 -0.23,-0.34 -0.19,-0.55 0.14,-0.69 0.23,-1.38 0.26,-2.06 0.03,-0.69 0.01,-1.37 -0.06,-2.04 -0.15,-1.39 -0.52,-2.71 -1.06,-3.94 -0.57,-1.3 -1.33,-2.5 -2.22,-3.55 -0.86,-1.02 -1.85,-1.91 -2.91,-2.65 -1.06,-0.74 -2.19,-1.32 -3.34,-1.71 l -0.03,-0.01 c -0.61,-0.21 -1.23,-0.36 -1.84,-0.46 h -0.02 c -0.6,-0.1 -1.2,-0.14 -1.79,-0.13 -0.27,0.02 -0.53,-0.16 -0.6,-0.44 -0.1,-0.41 -0.23,-0.81 -0.38,-1.2 -0.16,-0.4 -0.34,-0.79 -0.55,-1.18 -0.54,-1 -1.25,-1.92 -2.08,-2.71 -0.85,-0.81 -1.82,-1.5 -2.86,-2.03 -1.07,-0.54 -2.24,-0.92 -3.44,-1.09 -1.14,-0.16 -2.31,-0.14 -3.46,0.1 -1.29,0.31 -2.56,0.84 -3.72,1.68 z m 16.35,11.26 c 0.07,-0.22 0.27,-0.39 0.52,-0.41 0.42,-0.03 0.85,-0.01 1.28,0.06 0.44,0.07 0.88,0.18 1.32,0.33 0.83,0.28 1.66,0.71 2.43,1.25 0.76,0.53 1.48,1.18 2.1,1.92 l 0.01,0.02 c 0.65,0.77 1.2,1.63 1.61,2.57 0.39,0.88 0.65,1.82 0.76,2.81 0.07,0.66 0.07,1.35 -0.01,2.05 -0.07,0.65 -0.22,1.32 -0.45,1.99 l -0.01,0.04 c -0.14,0.4199997 -0.13,0.8599997 0,1.2499997 0.14,0.4 0.4,0.76 0.77,1 l 0.03,0.02 c 0.7,0.52 1.32,1.09 1.86,1.69 0.56,0.61 1.04,1.27 1.44,1.95 0.44,0.75 0.78,1.53 0.99,2.33 0.22,0.79 0.32,1.58999999 0.29,2.37999999 -0.02,0.82000001 -0.18,1.64000001 -0.47,2.45000001 -0.28,0.77 -0.69,1.53 -1.23,2.27 l -0.01,0.01 c -0.49,0.67 -1.11,1.33 -1.84,1.96 -0.7,0.6 -1.51,1.17 -2.44,1.72 l -0.03,0.02 c -0.37,0.21 -0.64,0.53 -0.8,0.9 -0.16,0.3700003 -0.21,0.7800003 -0.13,1.1800003 l 0.01,0.08 c 0.19,1.53 0.1,2.99 -0.21,4.32 -0.34,1.45 -0.93,2.75 -1.7,3.86 -0.59,0.85 -1.27,1.58 -2,2.16 -0.75,0.6 -1.56,1.04 -2.39,1.31 h -0.01 c -0.3,0.09 -0.63,-0.08 -0.72,-0.38 -1.13,-3.69 -3.08,-4.88 -6.38,-6.58 l -0.07,-0.04 c -0.46,-0.22 -0.96,-0.24 -1.41,-0.1 -0.45,0.14 -0.84,0.45 -1.07,0.9 l -0.03,0.06 c -0.22,0.46 -0.24,0.96 -0.1,1.41 0.15,0.45 0.47,0.85 0.93,1.09 2.76,1.41 4.8,2.48 4.77,5.94 -0.01,1.03 -0.33,2.03 -0.87,2.93 -0.57,0.95 -1.39,1.8 -2.34,2.49 -0.97,0.7 -2.06,1.21 -3.18,1.46 -1.07,0.25 -2.17,0.26 -3.2,-0.02 -1.74,-0.48 -2.87,-1.64 -3.63,-3.05 -0.72,-1.34 -1.12,-2.9 -1.41,-4.32 -0.02,-0.05 -0.02,-0.11 -0.02,-0.16 0,-0.72 -0.56,-1.19 -1.29,-1.4 -0.32,-0.1 -0.67,-0.14 -1.01,-0.14 -0.35,0 -0.690004,0.05 -1.010004,0.14 -0.72,0.22 -1.28,0.69 -1.28,1.4 0,0.05 -0.01,0.09 -0.02,0.14 -0.56,2.22 -1.37,3.89 -2.32,5.09 -1.11,1.41 -2.41,2.18 -3.75,2.46 -0.98,0.2 -1.99,0.15 -2.95,-0.1 -1.01,-0.27 -1.97,-0.76 -2.81,-1.4 -0.83,-0.65 -1.52,-1.44 -2,-2.33 -0.46,-0.85 -0.73,-1.79 -0.73,-2.75 0,-3.64 2.2,-4.86 5.11,-6.35 0.46,-0.24 0.78,-0.64 0.93,-1.09 0.15,-0.46 0.12,-0.97 -0.11,-1.44 -0.24,-0.46 -0.64,-0.78 -1.09,-0.93 -0.45,-0.14 -0.95,-0.12 -1.41,0.1 l -0.03,0.01 c -3.43,1.75 -5.48,3.03 -6.71,6.84 -0.07,0.25 -0.31,0.44 -0.58,0.43 -0.34,-0.01 -0.68,-0.05 -1.03,-0.12 -0.34,-0.07 -0.68,-0.16 -1,-0.28 -0.81,-0.28 -1.62,-0.69 -2.38,-1.21 -0.75,-0.52 -1.45,-1.14 -2.07,-1.86 -0.64,-0.74 -1.19,-1.57 -1.61,-2.48 -0.4,-0.85 -0.68,-1.76 -0.82,-2.71 v -0.02 c -0.1,-0.7 -0.12,-1.43 -0.04,-2.18 0.07,-0.7 0.22,-1.43 0.47,-2.1500003 l 0.01,-0.03 c 0.14,-0.41 0.13,-0.84 0.01,-1.22 l -0.01,-0.02 c -0.13,-0.4 -0.39,-0.75 -0.75,-1 l -0.02,-0.02 c -0.64,-0.48 -1.22,-0.99 -1.73,-1.55 -0.52,-0.56 -0.98,-1.16 -1.36,-1.78 -0.46,-0.75 -0.82,-1.55 -1.06,-2.37 -0.23,-0.8 -0.35,-1.62000001 -0.34,-2.46000001 0.01,-0.84999999 0.16,-1.71999999 0.46,-2.56999999 0.29,-0.81 0.71,-1.62 1.29,-2.41 0.49,-0.67 1.09,-1.33 1.81,-1.96 0.69,-0.61 1.47,-1.19 2.37,-1.74 0.33,-0.2 0.57,-0.48 0.73,-0.7999997 l 0.01,-0.03 c 0.16,-0.33 0.22,-0.7 0.17,-1.07 -0.01,-0.04 -0.01,-0.08 -0.01,-0.12 v -0.02 c -0.05,-0.35 -0.08,-0.7 -0.1,-1.04 -0.02,-0.37 -0.02,-0.74 -0.01,-1.1 0.05,-1.31 0.3,-2.54 0.71,-3.65 0.44,-1.19 1.06,-2.26 1.8,-3.17 0.61,-0.75 1.31,-1.38 2.04,-1.87 0.73,-0.49 1.5,-0.84 2.29,-1.04 v 0 c 0.3,-0.09 0.63,0.08 0.72,0.38 0.62,1.96 1.4,3.19 2.89,4.58 l 0.06,0.05 c 0.37,0.34 0.85,0.5 1.32,0.48 0.47,-0.02 0.93,-0.21 1.27,-0.58 l 0.03,-0.04 c 0.34,-0.37 0.5,-0.85 0.48,-1.32 -0.02,-0.47 -0.22,-0.94 -0.6,-1.3 -1.2,-1.11 -1.47,-1.8 -1.83,-2.92 -0.42,-1.29 -0.35,-2.55 0.06,-3.67 0.28,-0.77 0.72,-1.49 1.28,-2.12 0.55,-0.63 1.22,-1.19 1.96,-1.62 l 0.03,-0.02 c 0.76,-0.44 1.58,-0.76 2.43,-0.92 0.81,-0.15 1.64,-0.16 2.45,0.01 1.14,0.24 2.26,0.84 3.25,1.88 0.87,0.91 1.64,2.17 2.25,3.83 l 0.01,0.02 c 0.21,0.65 0.89,1.03 1.69,1.18 0.36,0.07 0.74,0.09 1.110004,0.07 h 0.01 c 0.38,-0.02 0.74,-0.09 1.08,-0.2 0.6,-0.2 1.07,-0.52 1.18,-0.93 v -0.23 c 0,-1.16 0.69,-2.39 1.64,-3.4 1.04,-1.1 2.43,-1.97 3.6,-2.21 0.74,-0.15 1.49,-0.16 2.22,-0.05 0.76,0.12 1.5,0.36 2.2,0.71 l 0.06,0.02 c 0.71,0.36 1.36,0.82 1.93,1.36 0.56,0.54 1.04,1.15 1.4,1.82 0.57,1.05 0.83,2.25 0.65,3.52 -0.16,1.11 -0.2,1.81 -1.13,2.92 l -0.01,0.01 c -0.33,0.39 -0.47,0.88 -0.43,1.36 0.04,0.46 0.25,0.91 0.62,1.23 l 0.06,0.05 c 0.39,0.32 0.87,0.45 1.34,0.41 0.46,-0.04 0.91,-0.25 1.23,-0.62 l 0.05,-0.07 c 0.96,-1.14 1.27,-1.98 1.71,-3.42 z m 21.96,48.94 c -0.19,-0.47 -0.3,-0.98 -0.3,-1.52 0,-0.54 0.11,-1.05 0.3,-1.52 0.2,-0.47 0.48,-0.9 0.84,-1.25 l 0.02,-0.03 c 0.2,-0.2 0.43,-0.39 0.68,-0.54 0.13,-0.08 0.27,-0.16 0.42,-0.23 v -6.31 h -7.76 c 0.01,-0.41 0.01,-0.82 -0.01,-1.24 -0.02,-0.23 0.08,-0.46 0.28,-0.59 0.8,-0.55 1.53,-1.12 2.19,-1.71 h 7.06 c 0.49,0 0.93,0.2 1.25,0.52 0.32,0.32 0.52,0.76 0.52,1.25 v 8.14 c 0.12,0.06 0.24,0.13 0.36,0.21 0.21,0.14 0.41,0.3 0.59,0.48 l 0.03,0.03 c 0.36,0.36 0.66,0.8 0.86,1.29 0.19,0.47 0.3,0.98 0.3,1.52 0,0.52 -0.1,1.02 -0.29,1.49 l -0.01,0.03 c -0.2,0.49 -0.5,0.92 -0.86,1.29 -0.36,0.36 -0.8,0.66 -1.29,0.86 -0.47,0.19 -0.98,0.3 -1.52,0.3 -0.53,0 -1.04,-0.11 -1.52,-0.3 -0.49,-0.2 -0.93,-0.5 -1.29,-0.86 -0.35,-0.38 -0.65,-0.82 -0.85,-1.31 z m 11.24,-20.2500003 h -10.55 c 0.18,-0.39 0.34,-0.78 0.48,-1.18 0.28,-0.78 0.48,-1.57 0.6,-2.36 h 9.47 c 0.07,-0.13 0.14,-0.26 0.22,-0.39 0.15,-0.24 0.33,-0.46 0.52,-0.65 0.37,-0.37000002 0.8,-0.66000002 1.29,-0.86000002 0.47,-0.19 0.98,-0.3 1.52,-0.3 0.52,0 1.02,0.1 1.49,0.29 l 0.03,0.01 c 0.49,0.2 0.92,0.5 1.29,0.86000002 0.36,0.36 0.66,0.8 0.86,1.29 0.19,0.47 0.3,0.98 0.3,1.52 0,0.53 -0.11,1.04 -0.3,1.52 -0.2,0.49 -0.5,0.93 -0.86,1.29 -0.36,0.36 -0.8,0.66 -1.29,0.86 -0.47,0.19 -0.98,0.3 -1.52,0.3 -0.52,0 -1.02,-0.1 -1.49,-0.29 l -0.03,-0.01 c -0.49,-0.2 -0.92,-0.5 -1.29,-0.86 -0.19,-0.19 -0.36,-0.4 -0.51,-0.63 l -0.02,-0.03 c -0.07,-0.12 -0.14,-0.25 -0.21,-0.38 z m 3.36,-9.68 h -13.27 c -0.34,-1.12 -0.82,-2.21 -1.42,-3.25 l -0.02,-0.03 c -0.05,-0.09 -0.1,-0.17 -0.15,-0.26 h 13.1 V -18.955 c -0.1,-0.06 -0.2,-0.12 -0.3,-0.19 -0.2,-0.14 -0.38,-0.29 -0.55,-0.46 -0.36,-0.36 -0.66,-0.8 -0.86,-1.29 -0.19,-0.47 -0.3,-0.98 -0.3,-1.52 0,-0.53 0.11,-1.05 0.3,-1.52 0.2,-0.49 0.5,-0.92 0.86,-1.29 0.36,-0.36 0.8,-0.66 1.29,-0.86 0.47,-0.19 0.98,-0.3 1.52,-0.3 0.53,0 1.04,0.11 1.52,0.3 0.49,0.2 0.93,0.5 1.29,0.86 0.36,0.36 0.66,0.8 0.86,1.29 0.19,0.47 0.3,0.98 0.3,1.52 0,0.52 -0.1,1.02 -0.29,1.49 l -0.01,0.03 c -0.2,0.49 -0.5,0.92 -0.86,1.29 -0.22,0.22 -0.48,0.42 -0.75,0.59 -0.15,0.09 -0.32,0.18 -0.48,0.25 v 13.1199997 c 0,0.49 -0.2,0.93 -0.52,1.25 -0.33,0.33 -0.77,0.53 -1.26,0.53 z m -13.87,-8.5399997 h -4.52 c 0.12,-0.66 0.19,-1.32 0.22,-1.98 0.02,-0.53 0.02,-1.05 -0.01,-1.56 h 2.54 v -5.22 c -0.14,-0.07 -0.27,-0.14 -0.4,-0.23 -0.24,-0.15 -0.46,-0.33 -0.67,-0.54 v 0 c -0.36,-0.36 -0.66,-0.8 -0.86,-1.29 -0.19,-0.47 -0.3,-0.98 -0.3,-1.51 0,-0.53 0.11,-1.04 0.3,-1.52 0.2,-0.47 0.48,-0.9 0.83,-1.26 l 0.03,-0.03 c 0.36,-0.36 0.8,-0.66 1.29,-0.86 0.47,-0.19 0.98,-0.3 1.52,-0.3 0.54,0 1.05,0.11 1.52,0.3 0.47,0.2 0.9,0.48 1.26,0.84 l 0.03,0.02 c 0.36,0.36 0.65,0.78 0.85,1.26 l 0.01,0.03 c 0.19,0.47 0.3,0.98 0.3,1.52 0,0.53 -0.11,1.05 -0.3,1.52 -0.2,0.47 -0.48,0.9 -0.83,1.26 l -0.03,0.03 c -0.19,0.19 -0.4,0.36 -0.64,0.52 -0.12,0.08 -0.24,0.15 -0.37,0.21 v 7.02 c 0,0.49 -0.2,0.93 -0.52,1.25 -0.32,0.32 -0.77,0.52 -1.25,0.52 z m -70.080004,-30.27 c 0.47,0.19 0.98,0.3 1.52,0.3 0.54,0 1.05,-0.11 1.52,-0.3 0.47,-0.2 0.9,-0.48 1.25,-0.84 l 0.03,-0.02 c 0.2,-0.2 0.39,-0.43 0.54,-0.68 0.08,-0.13 0.16,-0.27 0.23,-0.42 h 6.31 v 5.45 c 1.11,-0.59 2.31,-1.02 3.54,-1.27 v -5.95 c 0,-0.49 -0.2,-0.93 -0.52,-1.25 -0.32,-0.32 -0.76,-0.52 -1.25,-0.52 h -8.14 c -0.06,-0.12 -0.13,-0.24 -0.21,-0.36 -0.14,-0.21 -0.3,-0.41 -0.48,-0.59 l -0.03,-0.03 c -0.36,-0.36 -0.8,-0.66 -1.29,-0.86 -0.47,-0.19 -0.98,-0.3 -1.52,-0.3 -0.52,0 -1.03,0.1 -1.49,0.29 l -0.03,0.01 c -0.49,0.2 -0.92,0.5 -1.29,0.86 -0.36,0.36 -0.66,0.8 -0.86,1.29 -0.19,0.47 -0.3,0.98 -0.3,1.52 0,0.53 0.11,1.04 0.3,1.52 0.2,0.49 0.5,0.93 0.86,1.29 0.39,0.36 0.82,0.66 1.31,0.86 z m 20.26,-11.240001 V -40.255 c 1.18,0.34 2.33,0.88 3.41,1.66 l 0.12,0.09 c 0,-0.03 0.01,-0.06 0.01,-0.09 v -15.320001 c 0.13,-0.07 0.26,-0.14 0.39,-0.22 0.24,-0.15 0.46,-0.33 0.65,-0.52 0.36,-0.37 0.66,-0.8 0.86,-1.29 0.19,-0.47 0.3,-0.98 0.3,-1.52 0,-0.52 -0.1,-1.02 -0.29,-1.49 l -0.01,-0.03 c -0.2,-0.49 -0.5,-0.92 -0.86,-1.29 -0.36,-0.36 -0.8,-0.66 -1.29,-0.86 -0.47,-0.19 -0.98,-0.3 -1.52,-0.3 -0.53,0 -1.04,0.11 -1.52,0.3 -0.49,0.2 -0.93,0.5 -1.29,0.86 -0.36,0.36 -0.66,0.8 -0.86,1.29 -0.19,0.47 -0.3,0.98 -0.3,1.52 0,0.52 0.1,1.02 0.29,1.49 l 0.01,0.03 c 0.2,0.49 0.5,0.92 0.86,1.29 0.19,0.19 0.4,0.36 0.63,0.51 l 0.02,0.01 c 0.13,0.08 0.25,0.15 0.39,0.22 z m 9.670004,-3.36 V -37.295 c 0.48,-0.49 0.99,-0.92 1.51,-1.3 0.65,-0.47 1.33,-0.86 2.03,-1.16 v -15.760001 h 11.55 c 0.06,0.1 0.12,0.2 0.19,0.3 0.14,0.2 0.29,0.38 0.46,0.55 0.36,0.36 0.8,0.66 1.29,0.86 0.47,0.19 0.98,0.3 1.52,0.3 0.53,0 1.05,-0.11 1.52,-0.3 0.49,-0.2 0.93,-0.5 1.29,-0.86 0.36,-0.36 0.66,-0.8 0.86,-1.29 0.19,-0.47 0.3,-0.98 0.3,-1.52 0,-0.53 -0.11,-1.04 -0.3,-1.52 -0.2,-0.49 -0.5,-0.93 -0.86,-1.29 -0.38,-0.36 -0.82,-0.66 -1.31,-0.86 -0.47,-0.19 -0.98,-0.3 -1.51,-0.3 -0.52,0 -1.02,0.1 -1.49,0.29 l -0.03,0.01 c -0.49,0.2 -0.92,0.5 -1.29,0.86 -0.22,0.22 -0.42,0.48 -0.59,0.75 -0.09,0.15 -0.18,0.32 -0.25,0.48 h -13.12 c -0.49,0 -0.93,0.2 -1.25,0.52 -0.32,0.33 -0.52,0.77 -0.52,1.26 z m 8.54,13.870001 v 2.74 c 0.36,0.02 0.73,0.05 1.09,0.11 0.84,0.12 1.66,0.33 2.45,0.62 v -1.69 h 5.22 c 0.07,0.14 0.14,0.27 0.23,0.4 0.15,0.24 0.33,0.46 0.54,0.67 v 0 c 0.36,0.36 0.8,0.66 1.29,0.86 0.47,0.19 0.98,0.3 1.51,0.3 0.53,0 1.04,-0.11 1.52,-0.3 0.47,-0.2 0.9,-0.48 1.26,-0.83 l 0.03,-0.03 c 0.36,-0.36 0.66,-0.8 0.86,-1.29 0.19,-0.47 0.3,-0.98 0.3,-1.52 0,-0.54 -0.11,-1.05 -0.3,-1.52 -0.2,-0.47 -0.48,-0.9 -0.84,-1.26 l -0.02,-0.03 c -0.36,-0.36 -0.78,-0.65 -1.26,-0.85 l -0.03,-0.01 c -0.47,-0.19 -0.98,-0.3 -1.52,-0.3 -0.53,0 -1.05,0.11 -1.52,0.3 -0.47,0.2 -0.9,0.48 -1.26,0.83 l -0.03,0.03 c -0.19,0.19 -0.36,0.4 -0.52,0.64 -0.08,0.12 -0.15,0.24 -0.21,0.37 h -7.02 c -0.49,0 -0.93,0.2 -1.25,0.52 -0.32,0.31 -0.52,0.75 -0.52,1.24 z m -50.830004,17.16 c 0.19,0.47 0.3,0.98 0.3,1.52 0,0.54 -0.11,1.05 -0.3,1.52 -0.2,0.47 -0.48,0.9 -0.84,1.25 l -0.02,0.03 c -0.2,0.2 -0.43,0.39 -0.68,0.54 -0.13,0.08 -0.27,0.16 -0.42,0.23 v 6.31 h 6.55 v 0.31 c 0,0.24 0.01,0.49 0.02,0.75 0.02,0.22 -0.08,0.44 -0.27,0.58 -0.86,0.61 -1.63,1.25 -2.33,1.9 h -5.72 c -0.49,0 -0.93,-0.2 -1.25,-0.52 -0.32,-0.32 -0.52,-0.76 -0.52,-1.25 v -8.14 c -0.12,-0.06 -0.24,-0.13 -0.36,-0.21 -0.21,-0.14 -0.41,-0.3 -0.59,-0.48 l -0.03,-0.03 c -0.36,-0.36 -0.66,-0.8 -0.86,-1.29 -0.19,-0.47 -0.3,-0.98 -0.3,-1.52 0,-0.52 0.1,-1.02 0.29,-1.49 l 0.01,-0.03 c 0.2,-0.49 0.5,-0.92 0.86,-1.29 0.36,-0.36 0.8,-0.66 1.29,-0.86 0.47,-0.19 0.98,-0.3 1.52,-0.3 0.53,0 1.04,0.11 1.52,0.3 0.49,0.2 0.93,0.5 1.29,0.86 0.34,0.38 0.64,0.82 0.84,1.31 z m -11.24,20.2499997 h 9.4 c -0.16,0.36 -0.3,0.73 -0.43,1.09 -0.28,0.81 -0.48,1.62 -0.6,2.44 h -8.37 c -0.07,0.13 -0.14,0.26 -0.22,0.39 -0.15,0.24 -0.33,0.46 -0.52,0.65 -0.37,0.37 -0.8,0.65999998 -1.29,0.85999998 -0.47,0.19 -0.98,0.3 -1.52,0.3 -0.52,0 -1.02,-0.1 -1.49,-0.29 l -0.03,-0.01 c -0.49,-0.2 -0.92,-0.49999998 -1.29,-0.85999998 -0.36,-0.36 -0.66,-0.8 -0.86,-1.29 -0.19,-0.47 -0.3,-0.98 -0.3,-1.52 0,-0.53 0.11,-1.04 0.3,-1.52 0.2,-0.49 0.5,-0.93 0.86,-1.29 0.36,-0.36 0.8,-0.66 1.29,-0.86 0.47,-0.19 0.98,-0.3 1.52,-0.3 0.52,0 1.02,0.1 1.49,0.29 l 0.03,0.01 c 0.49,0.2 0.92,0.5 1.29,0.86 0.19,0.19 0.36,0.4 0.51,0.63 l 0.02,0.03 z m -3.36,9.68 h 12.23 c 0.38,1.21 0.93,2.38 1.63,3.49 v 0.01 l 0.02,0.04 h -12.12 V 18.775 c 0.1,0.06 0.2,0.12 0.3,0.19 0.2,0.14 0.38,0.29 0.55,0.46 0.36,0.36 0.66,0.8 0.86,1.29 0.19,0.47 0.3,0.98 0.3,1.52 0,0.53 -0.11,1.05 -0.3,1.52 -0.2,0.49 -0.5,0.92 -0.86,1.29 -0.36,0.36 -0.8,0.66 -1.29,0.86 -0.47,0.19 -0.98,0.3 -1.52,0.3 -0.53,0 -1.04,-0.11 -1.52,-0.3 -0.49,-0.2 -0.93,-0.5 -1.29,-0.86 -0.36,-0.39 -0.66,-0.83 -0.86,-1.31 -0.19,-0.47 -0.3,-0.98 -0.3,-1.52 0,-0.52 0.1,-1.02 0.29,-1.49 l 0.01,-0.03 c 0.2,-0.49 0.5,-0.92 0.86,-1.29 0.22,-0.22 0.48,-0.42 0.75,-0.59 0.15,-0.09 0.32,-0.18 0.48,-0.25 V 5.4449997 c 0,-0.49 0.2,-0.93 0.52,-1.25 0.33,-0.31 0.77,-0.51 1.26,-0.51 z m 13.87,8.5400003 h 3.3 c -0.11,0.66 -0.17,1.31 -0.19,1.95 -0.02,0.54 -0.01,1.07 0.03,1.59 h -1.37 v 5.22 c 0.14,0.07 0.27,0.14 0.4,0.23 0.24,0.15 0.46,0.33 0.67,0.54 v 0 c 0.36,0.36 0.66,0.8 0.86,1.29 0.19,0.47 0.3,0.98 0.3,1.52 0,0.54 -0.11,1.04 -0.3,1.52 -0.2,0.47 -0.48,0.9 -0.83,1.26 l -0.03,0.03 c -0.36,0.36 -0.8,0.66 -1.29,0.86 -0.47,0.19 -0.98,0.3 -1.52,0.3 -0.54,0 -1.05,-0.11 -1.52,-0.3 -0.47,-0.2 -0.9,-0.48 -1.26,-0.84 l -0.03,-0.02 c -0.36,-0.36 -0.65,-0.78 -0.85,-1.26 l -0.01,-0.03 c -0.19,-0.47 -0.3,-0.98 -0.3,-1.52 0,-0.53 0.11,-1.05 0.3,-1.52 0.2,-0.47 0.48,-0.9 0.83,-1.26 l 0.03,-0.03 c 0.19,-0.19 0.4,-0.36 0.64,-0.52 0.12,-0.08 0.24,-0.15 0.37,-0.21 v -7.02 c 0,-0.49 0.2,-0.93 0.52,-1.25 0.32,-0.34 0.76,-0.53 1.25,-0.53 z m 47.990004,41.680001 v -13.99 c -1.25,-0.39 -2.43,-1.02 -3.51,-1.910001 l -0.02,-0.02 v 15.930001 c -0.13,0.07 -0.26,0.14 -0.39,0.22 -0.24,0.15 -0.46,0.33 -0.65,0.52 -0.36,0.37 -0.66,0.8 -0.86,1.29 -0.19,0.47 -0.3,0.98 -0.3,1.52 0,0.52 0.1,1.02 0.29,1.49 l 0.01,0.03 c 0.2,0.49 0.5,0.92 0.86,1.29 0.36,0.36 0.8,0.66 1.29,0.86 0.47,0.19 0.98,0.3 1.52,0.3 0.53,0 1.04,-0.11 1.52,-0.3 0.49,-0.2 0.93,-0.5 1.29,-0.86 0.36,-0.36 0.66,-0.8 0.86,-1.29 0.19,-0.47 0.3,-0.98 0.3,-1.52 0,-0.52 -0.1,-1.02 -0.29,-1.49 l -0.01,-0.03 c -0.2,-0.49 -0.5,-0.92 -0.86,-1.29 -0.19,-0.19 -0.4,-0.36 -0.63,-0.51 l -0.03,-0.02 c -0.13,-0.08 -0.26,-0.15 -0.39,-0.22 z m -9.680004,3.36 V 37.105 c -0.42,0.43 -0.86,0.81 -1.32,1.16 -0.71,0.540001 -1.45,0.970001 -2.22,1.310001 v 15.94 h -11.55 c -0.06,-0.1 -0.12,-0.2 -0.19,-0.3 -0.14,-0.2 -0.29,-0.38 -0.46,-0.55 -0.36,-0.36 -0.8,-0.66 -1.29,-0.86 -0.47,-0.19 -0.98,-0.3 -1.52,-0.3 -0.53,0 -1.05,0.11 -1.52,0.3 -0.49,0.2 -0.92,0.5 -1.29,0.86 -0.36,0.36 -0.66,0.8 -0.86,1.29 -0.19,0.47 -0.3,0.98 -0.3,1.52 0,0.53 0.11,1.04 0.3,1.52 0.2,0.49 0.5,0.93 0.86,1.29 0.36,0.36 0.8,0.66 1.29,0.86 0.47,0.19 0.98,0.3 1.52,0.3 0.52,0 1.02,-0.1 1.49,-0.29 l 0.03,-0.01 c 0.49,-0.2 0.92,-0.5 1.29,-0.86 0.22,-0.22 0.42,-0.48 0.59,-0.75 0.09,-0.15 0.18,-0.32 0.25,-0.48 h 13.12 c 0.49,0 0.93,-0.2 1.25,-0.52 0.33,-0.34 0.53,-0.78 0.53,-1.27 z m -8.54,-13.87 v -2.91 c -0.78,-0.04 -1.56,-0.16 -2.32,-0.35 -0.41,-0.1 -0.82,-0.23 -1.22,-0.37 v 1.87 h -5.22 c -0.07,-0.14 -0.14,-0.27 -0.23,-0.4 -0.15,-0.24 -0.33,-0.46 -0.54,-0.67 v 0 c -0.36,-0.36 -0.8,-0.66 -1.29,-0.86 -0.47,-0.19 -0.98,-0.3 -1.51,-0.3 -0.53,0 -1.04,0.11 -1.52,0.3 -0.47,0.2 -0.9,0.48 -1.26,0.83 l -0.03,0.02 c -0.36,0.36 -0.66,0.8 -0.86,1.29 -0.19,0.47 -0.3,0.98 -0.3,1.52 0,0.54 0.11,1.05 0.3,1.52 0.2,0.47 0.48,0.9 0.84,1.26 l 0.02,0.03 c 0.36,0.36 0.78,0.65 1.26,0.85 l 0.03,0.01 c 0.47,0.19 0.98,0.3 1.52,0.3 0.53,0 1.04,-0.11 1.52,-0.3 0.47,-0.2 0.9,-0.48 1.26,-0.83 l 0.03,-0.03 c 0.19,-0.19 0.36,-0.4 0.52,-0.64 0.08,-0.12 0.15,-0.24 0.21,-0.37 h 7.02 c 0.49,0 0.93,-0.2 1.25,-0.52 0.32,-0.32 0.52,-0.76 0.52,-1.25 z"
     id="path2"
     sodipodi:nodetypes="cscccccccccssscssscsccccscccccccccccccsscccccccscccccccsscccccccccccccccccccccccccccscccccsscccccsccccccsccccccccccccccccccccccccccccccccccccccsccccccccccscccccscccccscscsccccccscccccccccccccccccccccccccccccccccscccccssscccsccsccccccccccccccccsccccccccccccccccccsccccccccccssscssscsccccscccccccccscsccccscscsccccccsccccccsscscccscscscccccssssccccccsscsccscscccccsccsscssscsccccccccssscssscsccccscccccccsccccsccccscscsccccccscccccsscscscscccscccccscssccccccsscsccscscccccsccsscscscscccccccscccssscssscsccccscccccccccscsccccscscsccccccsccccccsscscccscccscccccscssccccccsscsccscscccccsccsscscsccccccccsccccscscsccccccscccccsscscccscscscccccscssccccccsscsccccscccccsccsscsss" /><g
     id="g1217"
     transform="translate(-41.782101,-13.34706)"><path
       fill-rule="evenodd"
       clip-rule="evenodd"
       d="m -230.30542,0.89772535 c 13.84466,0 25.07121,11.22695365 25.07121,25.07080465 0,13.845073 -11.22695,25.071219 -25.07121,25.071219 -13.84424,4.15e-4 -25.07077,-11.226146 -25.07077,-25.071219 0,-13.843851 11.22653,-25.07080465 25.07077,-25.07080465 z m 6.88602,2.65036275 c 8.41338,2.7964218 14.72606,10.2002649 15.94208,19.2200379 l -0.79693,-0.08527 c -0.14156,0.610063 -0.27177,0.625564 -0.27177,1.360078 0,0.647998 0.81612,1.081765 0.81612,2.449581 0,0.36644 -0.8606,1.099318 -0.89856,1.227038 l -1.27804,-1.499221 v 1.905233 l -0.19433,-0.0083 -0.34441,-3.515433 -0.7137,0.224832 -0.84918,-2.615242 -2.79724,2.919672 -0.0335,2.137824 -0.91326,0.612485 -0.96996,-5.483502 -0.58026,0.423977 -1.31395,-1.773022 -1.96398,0.05837 -0.75248,-0.85977 -0.77,0.211771 -1.51472,-1.735891 -0.29259,0.199105 0.93854,2.398564 h 1.08912 v -0.544347 h 0.54393 c 0.39256,1.084621 0.81654,0.442334 0.81654,1.089113 0,2.263516 -2.79561,3.92759 -4.627,4.353594 0.0979,0.409281 0.06,0.817342 0.54395,0.817342 1.02546,0 0.51579,-0.179443 1.63346,-0.272164 -0.0518,2.312465 -2.65238,5.074218 -3.7627,6.795829 l 0.49701,3.546043 c 0.13101,0.770007 -1.59919,1.584907 -2.18763,2.452025 l 0.28239,1.358439 -0.79693,0.321963 c -0.1395,1.39555 -1.49431,2.943741 -3.01395,2.943741 h -1.63223 c 0,-1.910945 -1.36128,-4.638011 -1.36128,-5.988277 0,-1.146651 0.54394,-1.300904 0.54394,-2.721354 0,-1.312328 -1.36007,-3.194299 -1.36007,-3.537888 v -2.177393 h -1.0891 c -0.16164,-0.606792 -0.063,-0.816121 -0.81612,-0.816121 h -0.27218 c -1.18909,0 -0.98832,0.543936 -2.17741,0.543936 h -1.08911 c -0.98179,0 -2.72135,-3.150628 -2.72135,-3.538282 v -3.265702 c 0,-1.40946 1.28987,-2.943763 2.17739,-3.538717 V 17.78273 l 1.22501,-1.245395 0.68023,-0.115902 c 1.46046,0 1.28701,-0.816121 2.17742,-0.816121 h 2.44999 v 1.905234 l 2.69319,1.14992 0.25381,-1.162152 c 1.2205,0.286052 1.53797,0.82918 3.04166,0.82918 h 0.54396 c 1.03279,0 1.08829,-1.37028 1.08829,-2.449189 l -2.18025,0.215456 -0.94834,-2.0664 -0.94303,0.250949 c 0.1693,0.739397 0.26198,0.432131 0.26198,1.055646 0,0.367266 -0.30238,0.40806 -0.54477,0.544349 l -0.94302,-2.393268 -2.02764,-1.448204 -0.26932,0.264424 1.72649,1.816693 c -0.22932,0.651663 -0.25625,2.533633 -1.20827,1.215592 l 0.89041,-0.428446 -2.21905,-2.325548 -1.32946,0.519865 -1.3123,1.256842 c -0.13701,1.012389 -0.41297,1.521657 -1.47229,1.521657 -0.70513,0 -0.27953,-0.18234 -1.36129,-0.272185 v -2.721355 h 2.44917 l -0.79367,-1.812593 -0.29421,0.179441 v -0.54481 l 3.97735,-1.8338291 c -0.0751,-0.5708827 -0.16639,-0.2648364 -0.16639,-0.8875238 0,-0.037051 0.26727,-0.5394662 0.27217,-0.5451779 l 1.02873,0.6386234 -0.24608,-1.1715483 -1.58692,0.3264531 -0.29462,-1.4241346 c 1.25845,-0.6626947 4.02753,-2.9951534 4.90813,-2.9951534 h 0.81692 c 0.8598,0 3.16289,0.8483462 3.53749,1.3600569 l -2.18394,-0.221167 1.62041,1.3347643 0.15543,-0.5692491 1.20948,-0.3313363 0.0145,-0.7569478 h 0.54516 v 0.8161198 z m 15.77111,26.6626469 c -0.063,0.343589 -0.13225,0.683907 -0.20894,1.021785 l -0.12521,-0.878149 z m -0.78388,3.086156 c -0.06,0.181926 -0.12125,0.364804 -0.18565,0.545157 h -0.19993 v -0.545157 z m -42.14608,5.623889 c -1.47881,-2.241476 -2.58341,-4.75023 -3.2302,-7.43731 l 4.41562,2.129256 0.0225,1.317627 c 0,0.483956 -0.82632,1.513897 -1.08831,1.905234 z"
       id="path397"
       style="stroke-width:1" /><g
       id="g615"><rect
         style="fill:#000000;stroke-width:3.9;stroke-miterlimit:4"
         id="rect470"
         width="3.5934861"
         height="16.918934"
         x="-234.56396"
         y="48.420002" /><rect
         style="fill:#000000;stroke-width:3.9;stroke-miterlimit:4"
         id="rect478"
         width="3.5934861"
         height="18.465263"
         x="-226.98441"
         y="48.599415" /><rect
         style="fill:#000000;stroke-width:3.9;stroke-miterlimit:4"
         id="rect480"
         width="3.5934861"
         height="18.465263"
         x="67.064682"
         y="208.51913"
         transform="rotate(90)" /><rect
         style="fill:#000000;stroke-width:3.9;stroke-miterlimit:4"
         id="rect490"
         width="3.5934861"
         height="14.162605"
         x="-241.92305"
         y="45.367352" /><rect
         style="fill:#000000;stroke-width:3.9;stroke-miterlimit:4"
         id="rect492"
         width="3.5934861"
         height="18.465263"
         x="55.93647"
         y="238.32956"
         transform="rotate(90)" /><rect
         style="fill:#000000;stroke-width:3.9;stroke-miterlimit:4"
         id="rect494"
         width="3.5934861"
         height="11.802271"
         x="-219.69647"
         y="45.077198" /><circle
         style="fill:#000000;stroke-width:3.9;stroke-miterlimit:4"
         id="path570"
         cx="-256.79483"
         cy="57.733212"
         r="3.0262499" /><circle
         style="fill:#000000;stroke-width:3.9;stroke-miterlimit:4"
         id="circle584"
         cx="-232.76723"
         cy="65.338936"
         r="3.0262499" /><circle
         style="fill:#000000;stroke-width:3.9;stroke-miterlimit:4"
         id="circle586"
         cx="-208.51913"
         cy="68.861427"
         r="3.0262499" /><circle
         style="fill:#000000;stroke-width:3.9;stroke-miterlimit:4"
         id="circle588"
         cx="-217.89973"
         cy="55.93647"
         r="3.0262499" /></g><rect
       style="fill:#000000;stroke-width:3.9;stroke-miterlimit:4"
       id="rect617"
       width="3.5934861"
       height="16.918934"
       x="223.8273"
       y="-2.9935319"
       transform="scale(-1)" /><rect
       style="fill:#000000;stroke-width:3.9;stroke-miterlimit:4"
       id="rect619"
       width="3.5934861"
       height="18.465263"
       x="231.40686"
       y="-2.8141191"
       transform="scale(-1)" /><rect
       style="fill:#000000;stroke-width:3.9;stroke-miterlimit:4"
       id="rect621"
       width="3.5934861"
       height="18.465263"
       x="15.651142"
       y="-249.87213"
       transform="rotate(-90)" /><rect
       style="fill:#000000;stroke-width:3.9;stroke-miterlimit:4"
       id="rect623"
       width="3.5934861"
       height="13.239473"
       x="216.46822"
       y="-5.1230507"
       transform="scale(-1)" /><rect
       style="fill:#000000;stroke-width:3.9;stroke-miterlimit:4"
       id="rect625"
       width="3.5934861"
       height="18.465263"
       x="4.5229301"
       y="-220.06171"
       transform="rotate(-90)" /><rect
       style="fill:#000000;stroke-width:3.9;stroke-miterlimit:4"
       id="rect627"
       width="3.5934861"
       height="11.802271"
       x="238.69479"
       y="-6.3363361"
       transform="scale(-1)" /><circle
       style="fill:#000000;stroke-width:3.9;stroke-miterlimit:4"
       id="circle629"
       cx="201.59644"
       cy="6.3196774"
       r="3.0262499"
       transform="scale(-1)" /><circle
       style="fill:#000000;stroke-width:3.9;stroke-miterlimit:4"
       id="circle631"
       cx="225.62404"
       cy="13.925402"
       r="3.0262499"
       transform="scale(-1)" /><circle
       style="fill:#000000;stroke-width:3.9;stroke-miterlimit:4"
       id="circle633"
       cx="249.87213"
       cy="17.447893"
       r="3.0262499"
       transform="scale(-1)" /><circle
       style="fill:#000000;stroke-width:3.9;stroke-miterlimit:4"
       id="circle635"
       cx="240.49153"
       cy="4.5229359"
       r="3.0262499"
       transform="scale(-1)" /><g
       id="g695"
       transform="rotate(90,-230.94008,25.731048)"><rect
         style="fill:#000000;stroke-width:3.9;stroke-miterlimit:4"
         id="rect675"
         width="3.5934861"
         height="16.918934"
         x="-234.56396"
         y="48.420002" /><rect
         style="fill:#000000;stroke-width:3.9;stroke-miterlimit:4"
         id="rect677"
         width="3.5934861"
         height="18.465263"
         x="-226.98441"
         y="48.599415" /><rect
         style="fill:#000000;stroke-width:3.9;stroke-miterlimit:4"
         id="rect679"
         width="3.5934861"
         height="18.465263"
         x="67.064682"
         y="208.51913"
         transform="rotate(90)" /><rect
         style="fill:#000000;stroke-width:3.9;stroke-miterlimit:4"
         id="rect681"
         width="3.5934861"
         height="14.162605"
         x="-241.92305"
         y="45.367352" /><rect
         style="fill:#000000;stroke-width:3.9;stroke-miterlimit:4"
         id="rect683"
         width="3.5934861"
         height="18.465263"
         x="55.93647"
         y="238.32956"
         transform="rotate(90)" /><rect
         style="fill:#000000;stroke-width:3.9;stroke-miterlimit:4"
         id="rect685"
         width="3.5934861"
         height="11.802271"
         x="-219.69647"
         y="45.077198" /><circle
         style="fill:#000000;stroke-width:3.9;stroke-miterlimit:4"
         id="circle687"
         cx="-256.79483"
         cy="57.733212"
         r="3.0262499" /><circle
         style="fill:#000000;stroke-width:3.9;stroke-miterlimit:4"
         id="circle689"
         cx="-232.76723"
         cy="65.338936"
         r="3.0262499" /><circle
         style="fill:#000000;stroke-width:3.9;stroke-miterlimit:4"
         id="circle691"
         cx="-208.51913"
         cy="68.861427"
         r="3.0262499" /><circle
         style="fill:#000000;stroke-width:3.9;stroke-miterlimit:4"
         id="circle693"
         cx="-217.89973"
         cy="55.93647"
         r="3.0262499" /></g><rect
       style="fill:#000000;stroke-width:3.9;stroke-miterlimit:4"
       id="rect697"
       width="3.5934861"
       height="16.918934"
       x="-30.305048"
       y="-208.05521"
       transform="rotate(-90)" /><rect
       style="fill:#000000;stroke-width:3.9;stroke-miterlimit:4"
       id="rect699"
       width="3.5934861"
       height="18.072578"
       x="-22.725489"
       y="-207.48311"
       transform="rotate(-90)" /><rect
       style="fill:#000000;stroke-width:3.9;stroke-miterlimit:4"
       id="rect701"
       width="3.5934861"
       height="18.465263"
       x="-189.41052"
       y="4.2602143" /><rect
       style="fill:#000000;stroke-width:3.9;stroke-miterlimit:4"
       id="rect703"
       width="3.5934861"
       height="14.162605"
       x="-37.664131"
       y="-211.10785"
       transform="rotate(-90)" /><rect
       style="fill:#000000;stroke-width:3.9;stroke-miterlimit:4"
       id="rect705"
       width="3.5934861"
       height="18.465263"
       x="-200.53873"
       y="34.070641" /><rect
       style="fill:#000000;stroke-width:3.9;stroke-miterlimit:4"
       id="rect707"
       width="3.5934861"
       height="9.9942102"
       x="-15.437555"
       y="-209.58995"
       transform="rotate(-90)" /><circle
       style="fill:#000000;stroke-width:3.9;stroke-miterlimit:4"
       id="circle709"
       cx="-52.535912"
       cy="-198.74199"
       r="3.0262499"
       transform="rotate(-90)" /><circle
       style="fill:#000000;stroke-width:3.9;stroke-miterlimit:4"
       id="circle711"
       cx="-28.50831"
       cy="-191.13626"
       r="3.0262499"
       transform="rotate(-90)" /><circle
       style="fill:#000000;stroke-width:3.9;stroke-miterlimit:4"
       id="circle713"
       cx="-4.2602177"
       cy="-187.61377"
       r="3.0262499"
       transform="rotate(-90)" /><circle
       style="fill:#000000;stroke-width:3.9;stroke-miterlimit:4"
       id="circle715"
       cx="-13.640818"
       cy="-200.53873"
       r="3.0262499"
       transform="rotate(-90)" /></g><path
     fill-rule="evenodd"
     clip-rule="evenodd"
     d="m -198.45891,-162.55183 c 13.84466,0 25.07121,11.22695 25.07121,25.0708 0,13.84508 -11.22695,25.07123 -25.07121,25.07123 -13.84424,4.1e-4 -25.07077,-11.22615 -25.07077,-25.07123 0,-13.84385 11.22653,-25.0708 25.07077,-25.0708 z m 6.88602,2.65036 c 8.41338,2.79642 14.72606,10.20027 15.94208,19.22004 l -0.79693,-0.0853 c -0.14156,0.61006 -0.27177,0.62556 -0.27177,1.36008 0,0.648 0.81612,1.08176 0.81612,2.44958 0,0.36644 -0.8606,1.09932 -0.89856,1.22704 l -1.27804,-1.49922 v 1.90523 l -0.19433,-0.008 -0.34441,-3.51543 -0.7137,0.22483 -0.84918,-2.61524 -2.79724,2.91967 -0.0335,2.13782 -0.91326,0.61249 -0.96996,-5.48351 -0.58026,0.42398 -1.31395,-1.77302 -1.96398,0.0584 -0.75248,-0.85977 -0.77,0.21177 -1.51472,-1.73589 -0.29259,0.1991 0.93854,2.39857 h 1.08912 v -0.54435 h 0.54393 c 0.39256,1.08462 0.81654,0.44234 0.81654,1.08911 0,2.26352 -2.79561,3.92759 -4.627,4.3536 0.0979,0.40928 0.06,0.81734 0.54395,0.81734 1.02546,0 0.51579,-0.17944 1.63346,-0.27216 -0.0518,2.31246 -2.65238,5.07421 -3.7627,6.79583 l 0.49701,3.54604 c 0.13101,0.77001 -1.59919,1.58491 -2.18763,2.45202 l 0.28239,1.35844 -0.79693,0.32197 c -0.1395,1.39555 -1.49431,2.94374 -3.01395,2.94374 h -1.63223 c 0,-1.91095 -1.36128,-4.63801 -1.36128,-5.98828 0,-1.14665 0.54394,-1.3009 0.54394,-2.72135 0,-1.31233 -1.36007,-3.1943 -1.36007,-3.53789 v -2.1774 h -1.0891 c -0.16164,-0.60679 -0.063,-0.81612 -0.81612,-0.81612 h -0.27218 c -1.18909,0 -0.98832,0.54394 -2.17741,0.54394 h -1.08911 c -0.98179,0 -2.72135,-3.15063 -2.72135,-3.53828 v -3.2657 c 0,-1.40946 1.28987,-2.94377 2.17739,-3.53872 v -1.36006 l 1.22501,-1.24539 0.68023,-0.1159 c 1.46046,0 1.28701,-0.81612 2.17742,-0.81612 h 2.44999 v 1.90523 l 2.69319,1.14992 0.25381,-1.16215 c 1.2205,0.28605 1.53797,0.82918 3.04166,0.82918 h 0.54396 c 1.03279,0 1.08829,-1.37028 1.08829,-2.44919 l -2.18025,0.21545 -0.94834,-2.0664 -0.94303,0.25095 c 0.1693,0.7394 0.26198,0.43213 0.26198,1.05565 0,0.36727 -0.30238,0.40806 -0.54477,0.54435 l -0.94302,-2.39327 -2.02764,-1.4482 -0.26932,0.26442 1.72649,1.81669 c -0.22932,0.65167 -0.25625,2.53364 -1.20827,1.2156 l 0.89041,-0.42845 -2.21905,-2.32555 -1.32946,0.51987 -1.3123,1.25684 c -0.13701,1.01239 -0.41297,1.52166 -1.47229,1.52166 -0.70513,0 -0.27953,-0.18234 -1.36129,-0.27219 v -2.72135 h 2.44917 l -0.79367,-1.8126 -0.29421,0.17944 v -0.54481 l 3.97735,-1.83383 c -0.0751,-0.57088 -0.16639,-0.26483 -0.16639,-0.88752 0,-0.0371 0.26727,-0.53947 0.27217,-0.54518 l 1.02873,0.63863 -0.24608,-1.17155 -1.58692,0.32645 -0.29462,-1.42413 c 1.25845,-0.6627 4.02753,-2.99516 4.90813,-2.99516 h 0.81692 c 0.8598,0 3.16289,0.84835 3.53749,1.36006 l -2.18394,-0.22117 1.62041,1.33477 0.15543,-0.56925 1.20948,-0.33134 0.0145,-0.75695 h 0.54516 v 0.81612 z m 15.77111,26.66265 c -0.063,0.34359 -0.13225,0.68391 -0.20894,1.02178 l -0.12521,-0.87815 z m -0.78388,3.08615 c -0.06,0.18193 -0.12125,0.36481 -0.18565,0.54516 h -0.19993 v -0.54516 z m -42.14608,5.62389 c -1.47881,-2.24147 -2.58341,-4.75023 -3.2302,-7.43731 l 4.41562,2.12926 0.0225,1.31763 c 0,0.48395 -0.82632,1.51389 -1.08831,1.90523 z"
     id="path4184"
     style="stroke-width:1" /><rect
     style="fill:#000000;stroke-width:3.9;stroke-miterlimit:4"
     id="rect4186"
     width="5.4400115"
     height="14.162605"
     x="-211.1469"
     y="-118.0822" /><rect
     style="fill:#000000;stroke-width:3.90001;stroke-miterlimit:4"
     id="rect4188"
     width="6.052494"
     height="18.465263"
     x="-109.97209"
     y="205.70689"
     transform="rotate(90)" /><rect
     style="fill:#000000;stroke-width:3.9;stroke-miterlimit:4"
     id="rect4190"
     width="5.4400115"
     height="16.918934"
     x="-201.17867"
     y="-115.02956" /><rect
     style="fill:#000000;stroke-width:3.9;stroke-miterlimit:4"
     id="rect4192"
     width="5.4400115"
     height="18.465263"
     x="-191.21043"
     y="-117.06914" /><rect
     style="fill:#000000;stroke-width:3.9;stroke-miterlimit:4"
     id="rect4194"
     width="5.1893301"
     height="18.465263"
     x="-98.603867"
     y="172.74516"
     transform="rotate(90)" /><rect
     style="fill:#000000;stroke-width:3.9;stroke-miterlimit:4"
     id="rect4196"
     width="5.0296721"
     height="13.239473"
     x="187.37105"
     y="159.45233"
     transform="scale(-1)" /><rect
     style="fill:#000000;stroke-width:3.9;stroke-miterlimit:4"
     id="rect4198"
     width="5.0442533"
     height="18.465263"
     x="167.64757"
     y="-192.40071"
     transform="rotate(-90)" /><rect
     style="fill:#000000;stroke-width:3.9;stroke-miterlimit:4"
     id="rect4200"
     width="5.0296721"
     height="18.465263"
     x="195.94383"
     y="161.79605"
     transform="scale(-1)" /><rect
     style="fill:#000000;stroke-width:3.89999;stroke-miterlimit:4"
     id="rect4202"
     width="5.3344069"
     height="18.465263"
     x="180.26131"
     y="-214.4091"
     transform="rotate(-90)" /><circle
     style="fill:#000000;stroke-width:3.9;stroke-miterlimit:4"
     id="circle4204"
     cx="217.12172"
     cy="182.92851"
     r="4.6155586"
     transform="scale(-1)" /><rect
     style="fill:#000000;stroke-width:3.9;stroke-miterlimit:4"
     id="rect4206"
     width="4.6193337"
     height="11.802271"
     x="205.17647"
     y="159.12932"
     transform="scale(-1)" /><rect
     style="fill:#000000;stroke-width:3.9;stroke-miterlimit:4"
     id="rect4208"
     width="5.0296721"
     height="16.918934"
     x="-149.53226"
     y="219.07307"
     transform="rotate(90)" /><rect
     style="fill:#000000;stroke-width:3.9;stroke-miterlimit:4"
     id="rect4210"
     width="5.0296721"
     height="22.100576"
     x="-140.50858"
     y="221.96193"
     transform="rotate(90)" /><rect
     style="fill:#000000;stroke-width:3.89999;stroke-miterlimit:4"
     id="rect4212"
     width="5.3344069"
     height="18.465263"
     x="244.06252"
     y="122.0433"
     transform="scale(-1)" /><rect
     style="fill:#000000;stroke-width:3.9;stroke-miterlimit:4"
     id="rect4214"
     width="5.0296721"
     height="11.802271"
     x="-131.94199"
     y="219.81224"
     transform="rotate(90)" /><rect
     style="fill:#000000;stroke-width:3.9;stroke-miterlimit:4"
     id="rect4216"
     width="5.0296721"
     height="14.162605"
     x="126.06198"
     y="-176.21474"
     transform="rotate(-90)" /><rect
     style="fill:#000000;stroke-width:3.9;stroke-miterlimit:4"
     id="rect4218"
     width="4.7541003"
     height="18.465263"
     x="-166.80623"
     y="-131.09166" /><rect
     style="fill:#000000;stroke-width:3.9;stroke-miterlimit:4"
     id="rect4220"
     width="5.2348423"
     height="18.072578"
     x="134.86339"
     y="-175.63658"
     transform="rotate(-90)" /><rect
     style="fill:#000000;stroke-width:3.9;stroke-miterlimit:4"
     id="rect4222"
     width="5.1893301"
     height="18.465263"
     x="-157.56401"
     y="-153.32866" /><rect
     style="fill:#000000;stroke-width:3.9;stroke-miterlimit:4"
     id="rect4224"
     width="4.9442301"
     height="9.9942102"
     x="144.60414"
     y="-176.72789"
     transform="rotate(-90)" /><circle
     style="fill:#000000;stroke-width:3.9;stroke-miterlimit:4"
     id="circle4226"
     cx="207.48613"
     cy="170.29791"
     r="4.6155586"
     transform="scale(-1)" /><circle
     style="fill:#000000;stroke-width:3.9;stroke-miterlimit:4"
     id="circle4228"
     cx="174.3802"
     cy="171.02869"
     r="4.6155586"
     transform="scale(-1)" /><circle
     style="fill:#000000;stroke-width:3.9;stroke-miterlimit:4"
     id="circle4230"
     cx="155.0439"
     cy="154.05049"
     r="4.6155586"
     transform="scale(-1)" /><circle
     style="fill:#000000;stroke-width:3.9;stroke-miterlimit:4"
     id="circle4232"
     cx="166.52357"
     cy="147.07625"
     r="4.6155586"
     transform="scale(-1)" /><circle
     style="fill:#000000;stroke-width:3.9;stroke-miterlimit:4"
     id="circle4234"
     cx="164.42918"
     cy="113.46664"
     r="4.6155586"
     transform="scale(-1)" /><circle
     style="fill:#000000;stroke-width:3.9;stroke-miterlimit:4"
     id="circle4236"
     cx="172.74516"
     cy="96.009201"
     r="4.6155586"
     transform="scale(-1)" /><circle
     style="fill:#000000;stroke-width:3.9;stroke-miterlimit:4"
     id="circle4238"
     cx="198.45866"
     cy="98.110611"
     r="4.6155586"
     transform="scale(-1)" /><circle
     style="fill:#000000;stroke-width:3.9;stroke-miterlimit:4"
     id="circle4240"
     cx="224.84883"
     cy="106.94585"
     r="4.6155586"
     transform="scale(-1)" /><circle
     style="fill:#000000;stroke-width:3.9;stroke-miterlimit:4"
     id="circle4242"
     cx="246.72972"
     cy="119.64153"
     r="4.6155586"
     transform="scale(-1)" /><circle
     style="fill:#000000;stroke-width:3.9;stroke-miterlimit:4"
     id="circle4244"
     cx="233.01222"
     cy="129.42715"
     r="4.6155586"
     transform="scale(-1)" /><circle
     style="fill:#000000;stroke-width:3.9;stroke-miterlimit:4"
     id="circle4246"
     cx="237.51509"
     cy="147.01743"
     r="4.6155586"
     transform="scale(-1)" /><g
     id="g5475"
     transform="matrix(0.94266365,0,0,0.95230164,-23.918213,-9.1030596)"
     style="stroke-width:1.05544"
     inkscape:export-filename="spectra_logo.png"
     inkscape:export-xdpi="96"
     inkscape:export-ydpi="96"><path
       fill-rule="evenodd"
       clip-rule="evenodd"
       d="m -415.93857,-162.55183 c 13.84466,0 25.07121,11.22695 25.07121,25.0708 0,13.84508 -11.22695,25.07123 -25.07121,25.07123 -13.84424,4.1e-4 -25.07077,-11.22615 -25.07077,-25.07123 0,-13.84385 11.22653,-25.0708 25.07077,-25.0708 z m 6.88602,2.65036 c 8.41338,2.79642 14.72606,10.20027 15.94208,19.22004 l -0.79693,-0.0853 c -0.14156,0.61006 -0.27177,0.62556 -0.27177,1.36008 0,0.648 0.81612,1.08176 0.81612,2.44958 0,0.36644 -0.8606,1.09932 -0.89856,1.22704 l -1.27804,-1.49922 v 1.90523 l -0.19433,-0.008 -0.34441,-3.51543 -0.7137,0.22483 -0.84918,-2.61524 -2.79724,2.91967 -0.0335,2.13782 -0.91326,0.61249 -0.96996,-5.48351 -0.58026,0.42398 -1.31395,-1.77302 -1.96398,0.0584 -0.75248,-0.85977 -0.77,0.21177 -1.51472,-1.73589 -0.29259,0.1991 0.93854,2.39857 h 1.08912 v -0.54435 h 0.54393 c 0.39256,1.08462 0.81654,0.44234 0.81654,1.08911 0,2.26352 -2.79561,3.92759 -4.627,4.3536 0.0979,0.40928 0.06,0.81734 0.54395,0.81734 1.02546,0 0.51579,-0.17944 1.63346,-0.27216 -0.0518,2.31246 -2.65238,5.07421 -3.7627,6.79583 l 0.49701,3.54604 c 0.13101,0.77001 -1.59919,1.58491 -2.18763,2.45202 l 0.28239,1.35844 -0.79693,0.32197 c -0.1395,1.39555 -1.49431,2.94374 -3.01395,2.94374 h -1.63223 c 0,-1.91095 -1.36128,-4.63801 -1.36128,-5.98828 0,-1.14665 0.54394,-1.3009 0.54394,-2.72135 0,-1.31233 -1.36007,-3.1943 -1.36007,-3.53789 v -2.1774 h -1.0891 c -0.16164,-0.60679 -0.063,-0.81612 -0.81612,-0.81612 h -0.27218 c -1.18909,0 -0.98832,0.54394 -2.17741,0.54394 h -1.08911 c -0.98179,0 -2.72135,-3.15063 -2.72135,-3.53828 v -3.2657 c 0,-1.40946 1.28987,-2.94377 2.17739,-3.53872 v -1.36006 l 1.22501,-1.24539 0.68023,-0.1159 c 1.46046,0 1.28701,-0.81612 2.17742,-0.81612 h 2.44999 v 1.90523 l 2.69319,1.14992 0.25381,-1.16215 c 1.2205,0.28605 1.53797,0.82918 3.04166,0.82918 h 0.54396 c 1.03279,0 1.08829,-1.37028 1.08829,-2.44919 l -2.18025,0.21545 -0.94834,-2.0664 -0.94303,0.25095 c 0.1693,0.7394 0.26198,0.43213 0.26198,1.05565 0,0.36727 -0.30238,0.40806 -0.54477,0.54435 l -0.94302,-2.39327 -2.02764,-1.4482 -0.26932,0.26442 1.72649,1.81669 c -0.22932,0.65167 -0.25625,2.53364 -1.20827,1.2156 l 0.89041,-0.42845 -2.21905,-2.32555 -1.32946,0.51987 -1.3123,1.25684 c -0.13701,1.01239 -0.41297,1.52166 -1.47229,1.52166 -0.70513,0 -0.27953,-0.18234 -1.36129,-0.27219 v -2.72135 h 2.44917 l -0.79367,-1.8126 -0.29421,0.17944 v -0.54481 l 3.97735,-1.83383 c -0.0751,-0.57088 -0.16639,-0.26483 -0.16639,-0.88752 0,-0.0371 0.26727,-0.53947 0.27217,-0.54518 l 1.02873,0.63863 -0.24608,-1.17155 -1.58692,0.32645 -0.29462,-1.42413 c 1.25845,-0.6627 4.02753,-2.99516 4.90813,-2.99516 h 0.81692 c 0.8598,0 3.16289,0.84835 3.53749,1.36006 l -2.18394,-0.22117 1.62041,1.33477 0.15543,-0.56925 1.20948,-0.33134 0.0145,-0.75695 h 0.54516 v 0.81612 z m 15.77111,26.66265 c -0.063,0.34359 -0.13225,0.68391 -0.20894,1.02178 l -0.12521,-0.87815 z m -0.78388,3.08615 c -0.06,0.18193 -0.12125,0.36481 -0.18565,0.54516 h -0.19993 v -0.54516 z m -42.14608,5.62389 c -1.47881,-2.24147 -2.58341,-4.75023 -3.2302,-7.43731 l 4.41562,2.12926 0.0225,1.31763 c 0,0.48395 -0.82632,1.51389 -1.08831,1.90523 z"
       id="path4908"
       style="stroke-width:1.05544" /><rect
       style="fill:#000000;stroke-width:4.11623;stroke-miterlimit:4"
       id="rect4910"
       width="7.696876"
       height="14.162605"
       x="-427.70331"
       y="-117.15894" /><rect
       style="fill:#000000;stroke-width:4.11624;stroke-miterlimit:4"
       id="rect4912"
       width="7.4886808"
       height="18.465263"
       x="-106.74068"
       y="420.00644"
       transform="rotate(90)" /><rect
       style="fill:#000000;stroke-width:4.11623;stroke-miterlimit:4"
       id="rect4914"
       width="8.142416"
       height="16.918934"
       x="-412.52084"
       y="-116.26057" /><rect
       style="fill:#000000;stroke-width:4.11623;stroke-miterlimit:4"
       id="rect4920"
       width="7.8586688"
       height="13.239473"
       x="404.73209"
       y="159.51093"
       transform="scale(-1)" /><rect
       style="fill:#000000;stroke-width:4.11623;stroke-miterlimit:4"
       id="rect4922"
       width="6.9302506"
       height="18.465263"
       x="165.82014"
       y="-412.59076"
       transform="rotate(-90)" /><rect
       style="fill:#000000;stroke-width:4.11623;stroke-miterlimit:4"
       id="rect4930"
       width="8.4104767"
       height="19.926569"
       x="420.87256"
       y="158.32411"
       transform="scale(-1)" /><rect
       style="fill:#000000;stroke-width:4.11623;stroke-miterlimit:4"
       id="rect4932"
       width="7.9312067"
       height="13.791433"
       x="-149.24211"
       y="437.71335"
       transform="rotate(90)" /><rect
       style="fill:#000000;stroke-width:4.11623;stroke-miterlimit:4"
       id="rect4934"
       width="7.0607462"
       height="22.100576"
       x="-135.10658"
       y="438.74734"
       transform="rotate(90)" /><rect
       style="fill:#000000;stroke-width:4.11622;stroke-miterlimit:4"
       id="rect4936"
       width="7.1809325"
       height="18.465263"
       x="457.25745"
       y="116.64131"
       transform="scale(-1)" /><rect
       style="fill:#000000;stroke-width:4.11622;stroke-miterlimit:4"
       id="rect4940"
       width="7.9020448"
       height="14.162605"
       x="128.918"
       y="-392.78448"
       transform="rotate(-90)" /><rect
       style="fill:#000000;stroke-width:4.11623;stroke-miterlimit:4"
       id="rect4942"
       width="8.2359419"
       height="18.465263"
       x="-382.73987"
       y="-136.82004" /><rect
       style="fill:#000000;stroke-width:4.11623;stroke-miterlimit:4"
       id="rect4944"
       width="7.4917068"
       height="18.072578"
       x="141.65283"
       y="-393.98157"
       transform="rotate(-90)" /><rect
       style="fill:#000000;stroke-width:4.11624;stroke-miterlimit:4"
       id="rect4946"
       width="8.0908642"
       height="18.465263"
       x="-377.50995"
       y="-160.1181" /><circle
       style="fill:#000000;stroke-width:4.11623;stroke-miterlimit:4"
       id="circle4950"
       cx="425.07779"
       cy="183.61853"
       r="7.2278442"
       transform="scale(-1)" /><circle
       style="fill:#000000;stroke-width:4.11623;stroke-miterlimit:4"
       id="circle5288"
       cx="394.12549"
       cy="169.28526"
       r="7.2278442"
       transform="scale(-1)" /><circle
       style="fill:#000000;stroke-width:4.11623;stroke-miterlimit:4"
       id="circle5290"
       cx="373.46451"
       cy="162.05742"
       r="7.2278442"
       transform="scale(-1)" /><circle
       style="fill:#000000;stroke-width:4.11623;stroke-miterlimit:4"
       id="circle5292"
       cx="378.62189"
       cy="116.26057"
       r="7.2278442"
       transform="scale(-1)" /><circle
       style="fill:#000000;stroke-width:4.11623;stroke-miterlimit:4"
       id="circle5294"
       cx="408.44965"
       cy="97.265823"
       r="7.2278442"
       transform="scale(-1)" /><circle
       style="fill:#000000;stroke-width:4.11623;stroke-miterlimit:4"
       id="circle5296"
       cx="441.58453"
       cy="103.2528"
       r="7.2278442"
       transform="scale(-1)" /><circle
       style="fill:#000000;stroke-width:4.11623;stroke-miterlimit:4"
       id="circle5296-6"
       cx="460.8479"
       cy="117.15894"
       r="7.2278442"
       transform="scale(-1)" /><circle
       style="fill:#000000;stroke-width:4.11623;stroke-miterlimit:4"
       id="circle5296-7"
       cx="452.67297"
       cy="145.2765"
       r="7.2278442"
       transform="scale(-1)" /></g></svg>
