<?xml version="1.0" encoding="UTF-8" standalone="no"?>
<svg
   version="1.1"
   id="Layer_1"
   x="0px"
   y="0px"
   viewBox="0 0 111.16 122.88"
   style="enable-background:new 0 0 111.16 122.88"
   xml:space="preserve"
   sodipodi:docname="brush-icon.svg"
   inkscape:version="1.2.1 (9c6d41e410, 2022-07-14)"
   xmlns:inkscape="http://www.inkscape.org/namespaces/inkscape"
   xmlns:sodipodi="http://sodipodi.sourceforge.net/DTD/sodipodi-0.dtd"
   xmlns="http://www.w3.org/2000/svg"
   xmlns:svg="http://www.w3.org/2000/svg"><defs
     id="defs321" /><sodipodi:namedview
     id="namedview319"
     pagecolor="#ffffff"
     bordercolor="#000000"
     borderopacity="0.25"
     inkscape:showpageshadow="2"
     inkscape:pageopacity="0.0"
     inkscape:pagecheckerboard="0"
     inkscape:deskcolor="#d1d1d1"
     showgrid="false"
     inkscape:zoom="1.0884603"
     inkscape:cx="-143.78108"
     inkscape:cy="11.943476"
     inkscape:window-width="1366"
     inkscape:window-height="715"
     inkscape:window-x="-8"
     inkscape:window-y="-8"
     inkscape:window-maximized="1"
     inkscape:current-layer="Layer_1" /><style
     type="text/css"
     id="style312">.st0{fill-rule:evenodd;clip-rule:evenodd;}</style><g
     id="g316"
     transform="translate(-298.58691,12.862205)"
     style="fill:#ff0000"
     inkscape:export-filename="clear icon.png"
     inkscape:export-xdpi="96"
     inkscape:export-ydpi="96"><path
       class="st0"
       d="m 43.96,0 h 25.2 c 2.15,0 3.91,1.76 3.91,3.91 v 40.44 c 0,0.34 -0.04,0.66 -0.12,0.98 h 33.53 c 2.58,0 4.69,2.11 4.69,4.69 v 6.64 c 0,2.58 -2.11,4.69 -4.69,4.69 H 4.69 C 2.11,61.34 0,59.23 0,56.65 V 50.01 C 0,47.43 2.11,45.32 4.69,45.32 H 40.18 C 40.1,45 40.05,44.67 40.05,44.34 V 3.9 C 40.05,1.76 41.81,0 43.96,0 Z M 10.55,67.45 h 91.43 l 7.43,55.43 H 88.53 l -9.6,-25.37 v 25.37 H 57.27 l -9.6,-25.37 v 25.37 H 27.94 V 97.51 l -9.6,25.37 H 3.13 l 7.42,-55.43 v 0 z M 49.82,7.42 H 63.3 c 1.5,0 2.74,1.23 2.74,2.73 v 3.91 c 0,1.51 -1.23,2.74 -2.74,2.74 H 49.82 c -1.51,0 -2.73,-1.23 -2.73,-2.74 v -3.91 c -0.01,-1.5 1.22,-2.73 2.73,-2.73 z"
       id="path314"
       style="fill:#ff0000" /></g></svg>
