<?xml version="1.0" encoding="UTF-8" standalone="no"?>
<svg
   version="1.1"
   id="Layer_1"
   x="0px"
   y="0px"
   width="122.88px"
   height="114.318px"
   viewBox="0 0 122.88 114.318"
   enable-background="new 0 0 122.88 114.318"
   xml:space="preserve"
   sodipodi:docname="export-share-icon.svg"
   inkscape:version="1.2.1 (9c6d41e410, 2022-07-14)"
   xmlns:inkscape="http://www.inkscape.org/namespaces/inkscape"
   xmlns:sodipodi="http://sodipodi.sourceforge.net/DTD/sodipodi-0.dtd"
   xmlns="http://www.w3.org/2000/svg"
   xmlns:svg="http://www.w3.org/2000/svg"><defs
     id="defs11" /><sodipodi:namedview
     id="namedview9"
     pagecolor="#ffffff"
     bordercolor="#000000"
     borderopacity="0.25"
     inkscape:showpageshadow="2"
     inkscape:pageopacity="0.0"
     inkscape:pagecheckerboard="0"
     inkscape:deskcolor="#d1d1d1"
     showgrid="false"
     inkscape:zoom="1.169982"
     inkscape:cx="-80.770475"
     inkscape:cy="58.975268"
     inkscape:window-width="1366"
     inkscape:window-height="715"
     inkscape:window-x="-8"
     inkscape:window-y="-8"
     inkscape:window-maximized="1"
     inkscape:current-layer="Layer_1" /><g
     id="g6"
     style="fill:#ff6600"
     transform="matrix(0.64112149,0,0,0.64112149,-183.93658,34.188561)"
     inkscape:export-filename="export icon.png"
     inkscape:export-xdpi="96"
     inkscape:export-ydpi="96"><path
       fill-rule="evenodd"
       clip-rule="evenodd"
       d="M 122.88,35.289 87.945,70.578 V 52.998 C 65.854,48.421 48.403,53.466 35.149,70.269 37.45,35.711 61.056,19.034 87.944,17.93 L 87.945,0 Z"
       id="path2"
       style="fill:#ff6600" /><path
       d="m 6.908,23.746 h 35.626 c -4.587,3.96 -8.71,8.563 -12.264,13.815 H 13.815 v 62.943 H 94.418 V 85.831 l 13.814,-13.579 v 35.159 c 0,3.814 -3.093,6.907 -6.907,6.907 H 6.908 C 3.093,114.318 0,111.225 0,107.411 V 30.653 c 0,-3.815 3.093,-6.907 6.908,-6.907 z"
       id="path4"
       style="fill:#ff6600" /></g></svg>
