<?xml version="1.0" encoding="UTF-8" standalone="no"?>
<svg
   version="1.1"
   id="Layer_1"
   x="0px"
   y="0px"
   viewBox="0 0 95.23 122.88"
   style="enable-background:new 0 0 95.23 122.88"
   xml:space="preserve"
   sodipodi:docname="hand-line-icon.svg"
   inkscape:version="1.2.1 (9c6d41e410, 2022-07-14)"
   xmlns:inkscape="http://www.inkscape.org/namespaces/inkscape"
   xmlns:sodipodi="http://sodipodi.sourceforge.net/DTD/sodipodi-0.dtd"
   xmlns="http://www.w3.org/2000/svg"
   xmlns:svg="http://www.w3.org/2000/svg"><defs
     id="defs9" /><sodipodi:namedview
     id="namedview7"
     pagecolor="#ffffff"
     bordercolor="#000000"
     borderopacity="0.25"
     inkscape:showpageshadow="2"
     inkscape:pageopacity="0.0"
     inkscape:pagecheckerboard="0"
     inkscape:deskcolor="#d1d1d1"
     showgrid="false"
     inkscape:zoom="1.5393153"
     inkscape:cx="-123.75632"
     inkscape:cy="139.67249"
     inkscape:window-width="1366"
     inkscape:window-height="715"
     inkscape:window-x="-8"
     inkscape:window-y="-8"
     inkscape:window-maximized="1"
     inkscape:current-layer="Layer_1" /><g
     id="g4"
     style="fill:#000080"
     transform="translate(-140.10617,-2.7561869)"
     inkscape:export-filename="pan tool.png"
     inkscape:export-xdpi="96"
     inkscape:export-ydpi="96"><path
       d="m 10.52,22.54 v 0 c 2.11,0 4.08,0.63 5.73,1.71 v -2.84 c 0,-2.89 1.18,-5.52 3.09,-7.43 1.9,-1.9 4.53,-3.09 7.43,-3.09 v 0 c 2.23,0 4.3,0.7 6.01,1.9 V 10.5 c 0,-2.89 1.18,-5.52 3.09,-7.43 C 37.77,1.18 40.4,0 43.29,0 v 0 c 2.89,0 5.52,1.18 7.43,3.09 1.9,1.9 3.09,4.53 3.09,7.43 v 2.32 c 1.68,-1.15 3.71,-1.82 5.9,-1.82 v 0 c 2.89,0 5.52,1.18 7.43,3.09 1.9,1.9 3.09,4.54 3.09,7.43 v 49.97 c 0.13,0.86 0.2,1.74 0.2,2.64 v 2.94 l 0.26,-0.24 c 1.81,-1.7 3.58,-3.47 4.24,-4.14 4.48,-4.49 9.31,-5.44 13.14,-4.23 1.73,0.55 3.23,1.53 4.41,2.83 1.17,1.29 2.03,2.89 2.46,4.69 1.01,4.25 -0.36,9.6 -5.64,14.32 l -0.09,0.09 v 0 l -0.02,0.02 -23.12,23.34 v 0.01 c -0.05,0.05 -0.11,0.11 -0.17,0.16 -3.38,3.25 -6.69,5.47 -10.29,6.9 -3.66,1.46 -7.52,2.06 -11.94,2.06 H 28.71 C 20.75,122.9 13.58,119.64 8.4,114.4 3.2,109.11 0,101.84 0,93.85 V 74.13 C 0,73.44 0.04,72.76 0.11,72.09 0.04,71.86 0,71.61 0.01,71.36 v -38.3 c 0,-2.89 1.18,-5.52 3.09,-7.43 1.9,-1.91 4.53,-3.09 7.42,-3.09 z m 55.62,61.01 c -4.09,-1.57 -7.81,-2.34 -11.09,-2.39 -3.43,-0.05 -6.36,0.68 -8.69,2.08 -2.26,1.35 -3.98,3.38 -5.07,5.96 -0.85,2.01 -1.31,4.35 -1.35,6.98 l -4.76,-0.06 c 0.05,-3.28 0.63,-6.23 1.7,-8.77 1.48,-3.53 3.87,-6.31 7.03,-8.2 3.08,-1.85 6.86,-2.81 11.19,-2.75 3.23,0.05 6.76,0.66 10.53,1.9 v -4.16 c 0,-0.51 -0.03,-1.02 -0.09,-1.52 -0.1,-0.22 -0.16,-0.45 -0.19,-0.7 -0.63,-2.87 -2.23,-5.4 -4.45,-7.22 -2.22,-1.81 -5.05,-2.91 -8.12,-2.91 h -1.2 c -0.03,0 -0.05,0 -0.08,0 -0.03,0 -0.05,0 -0.08,0 H 35.17 c -0.05,0 -0.09,0 -0.14,0 -0.05,0 -0.09,0 -0.14,0 H 18.64 c -0.25,0 -0.5,-0.04 -0.73,-0.12 h -0.6 c -3.06,0 -5.87,1.08 -8.07,2.87 -1.09,0.89 -2.03,1.94 -2.79,3.13 -1.07,1.9 -1.67,4.11 -1.67,6.46 v 19.72 c 0,6.7 2.67,12.79 7.02,17.18 4.31,4.36 10.27,7.06 16.91,7.06 h 14.96 c 3.86,0 7.16,-0.5 10.19,-1.71 3,-1.19 5.81,-3.1 8.73,-5.91 0.03,-0.03 0.06,-0.06 0.09,-0.09 v 0 l 0.03,-0.03 23.09,-23.31 c 0.07,-0.08 0.15,-0.17 0.24,-0.24 l 1.59,1.79 -1.58,-1.78 c 3.83,-3.39 4.89,-7 4.23,-9.74 -0.24,-1 -0.7,-1.88 -1.34,-2.58 -0.63,-0.7 -1.42,-1.22 -2.32,-1.5 -2.27,-0.72 -5.28,0.01 -8.32,3.05 -0.7,0.7 -2.55,2.55 -4.35,4.25 -1.7,1.59 -3.45,3.12 -4.6,3.77 -0.38,0.25 -0.83,0.4 -1.32,0.4 -0.77,0.01 -1.46,-0.35 -1.89,-0.91 z M 21.04,56.5 H 32.51 V 21.42 c 0,-1.57 -0.65,-3.01 -1.69,-4.05 -1.04,-1.04 -2.47,-1.69 -4.05,-1.69 v 0 c -1.57,0 -3.01,0.65 -4.05,1.69 -1.04,1.04 -1.69,2.47 -1.69,4.05 V 33.06 56.5 Z m 16.52,0 H 49.03 V 10.52 C 49.03,8.95 48.38,7.51 47.34,6.47 46.3,5.43 44.87,4.78 43.29,4.78 v 0 c -1.57,0 -3.01,0.65 -4.05,1.69 -1.04,1.04 -1.69,2.47 -1.69,4.05 V 56.5 Z m 16.41,0.04 c 4.38,0.29 8.34,2.2 11.27,5.14 0.07,0.07 0.13,0.14 0.2,0.2 V 21.53 c 0,-1.57 -0.65,-3.01 -1.69,-4.05 C 62.71,16.44 61.28,15.8 59.7,15.8 v 0 c -1.57,0 -3.01,0.64 -4.05,1.68 -1.04,1.04 -1.69,2.47 -1.69,4.05 V 56.54 Z M 4.79,61.93 c 0.09,-0.09 0.17,-0.19 0.26,-0.28 2.89,-2.95 6.8,-4.86 11.2,-5.12 V 33.06 c 0,-1.57 -0.64,-3.01 -1.68,-4.05 -1.04,-1.04 -2.47,-1.69 -4.05,-1.69 v 0 c -1.58,0 -3.01,0.65 -4.05,1.69 -1.04,1.04 -1.68,2.47 -1.68,4.05 v 28.87 z"
       id="path2"
       style="fill:#000080" /></g></svg>
