<?xml version="1.0" encoding="UTF-8" standalone="no"?>
<svg
   version="1.1"
   id="Layer_1"
   x="0px"
   y="0px"
   width="122.879px"
   height="119.801px"
   viewBox="0 0 122.879 119.801"
   enable-background="new 0 0 122.879 119.801"
   xml:space="preserve"
   sodipodi:docname="zoom-out-icon.svg"
   inkscape:version="1.2.1 (9c6d41e410, 2022-07-14)"
   xmlns:inkscape="http://www.inkscape.org/namespaces/inkscape"
   xmlns:sodipodi="http://sodipodi.sourceforge.net/DTD/sodipodi-0.dtd"
   xmlns="http://www.w3.org/2000/svg"
   xmlns:svg="http://www.w3.org/2000/svg"><defs
     id="defs9" /><sodipodi:namedview
     id="namedview7"
     pagecolor="#ffffff"
     bordercolor="#000000"
     borderopacity="0.25"
     inkscape:showpageshadow="2"
     inkscape:pageopacity="0.0"
     inkscape:pagecheckerboard="0"
     inkscape:deskcolor="#d1d1d1"
     showgrid="false"
     inkscape:zoom="0.78943857"
     inkscape:cx="-119.70532"
     inkscape:cy="8.8670611"
     inkscape:window-width="1366"
     inkscape:window-height="715"
     inkscape:window-x="-8"
     inkscape:window-y="-8"
     inkscape:window-maximized="1"
     inkscape:current-layer="Layer_1" /><path
     fill-rule="evenodd"
     clip-rule="evenodd"
     d="m 53.554823,8.1799208 h 0.01304 v 0.00519 c 12.073226,0.00353 23.013875,4.9022862 30.927904,12.8180632 7.900023,7.904401 12.794431,18.831047 12.803184,30.899022 h 0.0052 v 0.02975 0.03501 h -0.0052 c -0.0043,4.863778 -0.803483,9.544625 -2.270404,13.909505 -0.245946,0.732587 -0.504146,1.436289 -0.767597,2.108484 v 0.0062 c -1.265614,3.204299 -2.901458,6.231796 -4.855894,9.021224 l 25.452324,22.879089 0.0158,0.01303 0.13743,0.127802 0.011,0.011 c 1.4363,1.36802 2.21875,3.19992 2.31766,5.05809 0.0963,1.83802 -0.47087,3.71807 -1.7295,5.22612 l -0.01,0.0141 -0.15406,0.17855 -0.0341,0.0403 -0.1269,0.13567 -0.01,0.01 c -1.36802,1.43717 -3.19992,2.22226 -5.06072,2.32029 -1.84151,0.0971 -3.72332,-0.47263 -5.22962,-1.73124 l -0.011,-0.011 -0.17766,-0.15317 -0.0254,-0.021 -26.032715,-23.399806 c -0.770223,0.542656 -1.557073,1.056429 -2.351803,1.543069 -1.08006,0.661691 -2.196882,1.283995 -3.339962,1.852908 -5.863312,2.925092 -12.486345,4.571443 -19.491861,4.571443 v 0.0052 h -0.01408 v -0.0052 C 41.46489,95.672762 30.52424,90.774825 22.614589,82.859924 l -0.0035,0.0043 C 14.708512,74.961648 9.8141037,64.029751 9.8062265,51.960901 h -0.00618 v -0.02888 -0.01408 h 0.00618 c 0.00431,-12.0776 4.9022855,-23.0165 12.8189415,-30.930529 7.9044,-7.900023 18.831922,-12.7944328 30.900773,-12.8023089 v -0.00519 z M 69.130808,46.163232 c 1.059054,-0.0062 2.059467,0.273079 2.907587,0.76322 l -0.0018,0.0018 c 0.319469,0.183806 0.619681,0.397365 0.884006,0.625805 0.267828,0.231067 0.5199,0.49802 0.74484,0.78335 h 0.0035 c 0.764095,0.971531 1.222727,2.207386 1.220102,3.547397 -0.0027,1.064307 -0.29321,2.063844 -0.792978,2.918964 -0.397364,0.682697 -0.935645,1.278744 -1.567578,1.747004 -0.309838,0.228441 -0.657312,0.434126 -1.022292,0.602174 v 0.0018 c -0.720334,0.330846 -1.530816,0.520777 -2.382437,0.525152 l -30.77911,0.217031 c -1.05818,0.0095 -2.060343,-0.271329 -2.911963,-0.764094 l 0.0018,-0.0018 C 35.110627,56.945505 34.808665,56.730184 34.545214,56.499117 34.277387,56.26805 34.029691,56.00285 33.806501,55.71927 H 33.803 c -0.764095,-0.973281 -1.222725,-2.207386 -1.219226,-3.547398 0.0018,-1.06168 0.294961,-2.060343 0.79298,-2.912838 l -0.0035,-0.0018 c 0.329095,-0.561912 0.760595,-1.072184 1.262113,-1.500183 h 0.0035 c 0.502397,-0.427997 1.081812,-0.772846 1.69974,-1.007416 0.616177,-0.232815 1.298874,-0.365855 2.009579,-0.37023 z M 53.567952,17.993246 v 0.0052 h -0.01305 -0.02975 v -0.0052 c -9.350317,0.0062 -17.826258,3.805598 -23.960898,9.937612 l 0.0018,0.0018 c -6.143395,6.142518 -9.94724,14.626334 -9.949865,23.985405 h 0.0052 v 0.01408 0.02888 h -0.0052 c 0.0052,9.350319 3.80472,17.824506 9.937611,23.961773 l 0.0018,-0.0018 c 6.142519,6.14252 14.626335,9.947236 23.985407,9.948986 v -0.0062 h 0.01408 0.02888 v 0.0062 c 9.352068,-0.0062 17.826259,-3.805593 23.965276,-9.941983 6.137267,-6.134642 9.941988,-14.618461 9.943737,-23.982781 h -0.0052 v -0.01304 -0.02975 h 0.0062 C 87.48778,42.553861 83.688384,34.079671 77.551117,27.94328 v -0.0062 C 71.416091,21.800594 62.932273,17.994998 53.567952,17.993246 Z"
     id="path2"
     style="fill:#aad400;stroke-width:0.875252"
     inkscape:export-filename="zoom out icon.png"
     inkscape:export-xdpi="98.877441"
     inkscape:export-ydpi="98.877441" /></svg>
